<svg width="173" height="146" viewBox="0 0 173 146" fill="none" xmlns="http://www.w3.org/2000/svg">
<g filter="url(#filter0_i_9_296)">
<path fill-rule="evenodd" clip-rule="evenodd" d="M60.5409 132.802C35.3477 113.499 0.943604 81.6113 0.943604 51.4616C0.943604 1.09239 48.0257 -17.7148 86.5473 21.1836C125.069 -17.7148 172.151 1.09239 172.151 51.4616C172.151 81.6113 137.738 113.499 112.554 132.802C101.151 141.534 95.4501 145.908 86.5473 145.908C77.6445 145.908 71.9433 141.542 60.5409 132.802ZM125.069 28.2031C126.772 28.2031 128.405 28.8795 129.609 30.0835C130.813 31.2876 131.489 32.9206 131.489 34.6234V45.3238H142.19C143.893 45.3238 145.526 46.0003 146.73 47.2043C147.934 48.4083 148.61 50.0414 148.61 51.7441C148.61 53.4469 147.934 55.0799 146.73 56.2839C145.526 57.488 143.893 58.1644 142.19 58.1644H131.489V68.8649C131.489 70.5676 130.813 72.2006 129.609 73.4047C128.405 74.6087 126.772 75.2851 125.069 75.2851C123.366 75.2851 121.733 74.6087 120.529 73.4047C119.325 72.2006 118.649 70.5676 118.649 68.8649V58.1644H107.948C106.246 58.1644 104.612 57.488 103.408 56.2839C102.204 55.0799 101.528 53.4469 101.528 51.7441C101.528 50.0414 102.204 48.4083 103.408 47.2043C104.612 46.0003 106.246 45.3238 107.948 45.3238H118.649V34.6234C118.649 32.9206 119.325 31.2876 120.529 30.0835C121.733 28.8795 123.366 28.2031 125.069 28.2031Z" fill="#6EFF96"/>
</g>
<defs>
<filter id="filter0_i_9_296" x="0.943604" y="0.381042" width="171.208" height="145.527" filterUnits="userSpaceOnUse" color-interpolation-filters="sRGB">
<feFlood flood-opacity="0" result="BackgroundImageFix"/>
<feBlend mode="normal" in="SourceGraphic" in2="BackgroundImageFix" result="shape"/>
<feColorMatrix in="SourceAlpha" type="matrix" values="0 0 0 0 0 0 0 0 0 0 0 0 0 0 0 0 0 0 127 0" result="hardAlpha"/>
<feOffset/>
<feGaussianBlur stdDeviation="2"/>
<feComposite in2="hardAlpha" operator="arithmetic" k2="-1" k3="1"/>
<feColorMatrix type="matrix" values="0 0 0 0 0 0 0 0 0 0 0 0 0 0 0 0 0 0 0.25 0"/>
<feBlend mode="normal" in2="shape" result="effect1_innerShadow_9_296"/>
</filter>
</defs>
</svg>
