<svg width="208" height="218" viewBox="0 0 208 218" fill="none" xmlns="http://www.w3.org/2000/svg">
<g clip-path="url(#clip0_122_788)">
<path d="M104.1 203.827C161.592 203.827 208.199 158.199 208.199 101.914C208.199 45.6283 161.592 0 104.1 0C46.6069 0 0 45.6283 0 101.914C0 158.199 46.6069 203.827 104.1 203.827Z" fill="#272361"/>
<path d="M104.099 168.167C141.475 168.167 171.774 138.505 171.774 101.914C171.774 65.3228 141.475 35.6601 104.099 35.6601C66.7238 35.6601 36.4248 65.3228 36.4248 101.914C36.4248 138.505 66.7238 168.167 104.099 168.167Z" fill="url(#paint0_radial_122_788)"/>
<path d="M76.1722 95.026C78.2315 94.5314 80.2526 93.8643 82.2047 93.0699C82.2047 93.0699 90.3808 82.8695 78.7904 85.0655C78.7904 85.0655 78.9588 81.5579 83.3837 80.7335C83.3837 80.7335 78.0631 80.074 71.8468 84.5708C68.1263 87.2615 62.3693 87.906 58.1971 85.8974C54.132 83.9413 53.2976 79.7667 53.7263 75.742C53.9712 73.3812 54.7904 65.5491 50.5263 65.8564C52.1416 67.2055 51.843 69.2665 51.7435 71.1477C51.5827 74.4604 49.9368 77.4658 49.2019 80.6586C48.5818 83.3267 48.9339 86.3246 50.465 88.648C51.9502 90.8964 54.3846 92.3804 56.8038 93.5271C62.8057 96.3751 69.7799 96.555 76.1798 95.026H76.1722Z" fill="#272361"/>
<path d="M130.228 88.648C130.228 88.648 143.372 87.7636 145.317 75.045C145.317 75.045 140.073 72.5043 133.343 75.6821C133.902 75.4122 134.423 75.1349 134.913 74.7527C135.992 73.9208 136.827 72.8041 137.24 71.5225C137.898 69.4839 137.47 67.2804 136.681 65.3393C135.234 61.7868 132.831 58.7064 130.136 55.9783C127.548 53.3702 124.088 51.2192 122.067 48.1388C121.791 47.7341 121.554 47.2994 121.363 46.8497C120.873 45.7405 120.697 44.5189 120.773 43.3122C120.834 42.2704 120.972 41.2362 121.485 40.2993C120.436 41.0863 119.64 42.203 119.12 43.3797C117.596 46.8272 118.408 50.6196 120 53.8873C120.804 55.5511 121.807 57.1101 122.886 58.6165C123.935 60.0705 125.121 61.487 125.596 63.2408C126.04 64.8896 125.627 66.426 124.256 67.5128C122.641 68.7944 120.421 69.2965 118.438 69.6937C115.667 70.2409 112.85 70.4957 110.032 70.7505C104.444 71.2527 98.4344 71.3801 93.1138 73.3512C92.3329 73.6435 91.5674 73.9807 90.8554 74.4154C90.3578 74.7152 89.7607 75.4872 89.2631 75.742C90.5492 75.2923 103.831 70.7655 110.293 74.1007C110.293 74.1007 102.078 74.4304 97.2248 87.936C97.2248 87.936 95.732 86.2047 96.4056 82.1051C96.4056 82.1051 93.5731 85.8674 93.42 95.3708C93.2669 104.874 89.1635 106.051 89.1635 106.051C89.1635 106.051 85.9712 101.959 80.9875 105.136C81.1635 105.024 82.1434 105.511 82.3042 105.579C83.2612 105.968 84.1722 106.493 84.9454 107.168C87.5406 109.453 87.5635 113.77 85.0525 116.146C84.3865 116.776 83.5521 117.203 82.6411 117.368C82.3884 117.413 80.2449 117.608 80.7425 116.963C81.0257 116.596 81.6076 116.573 82.0133 116.416C83.0315 116.026 84.0114 115.299 84.5013 114.325C85.1214 113.081 84.9454 111.627 84.3023 110.428C83.8889 109.656 83.2612 109.026 82.5262 108.532C82.0516 108.209 81.5004 107.999 81.0028 107.7C80.5281 107.415 80.2678 107.055 79.954 106.613C79.8927 106.538 79.8315 106.456 79.7473 106.396C79.3033 106.096 78.7827 106.86 78.4611 107.085C77.8411 107.512 77.0372 107.692 76.287 107.602C75.9578 107.557 75.6056 107.49 75.3147 107.317C75.0085 107.138 74.7559 106.868 74.4267 106.71C73.4698 106.261 72.643 107.227 72.1836 107.925C71.5023 108.966 71.2803 110.255 70.9588 111.432C70.7903 112.024 70.4841 111.29 70.4152 111.05C69.9789 109.491 71.043 107.602 71.8698 106.343C72.5128 105.346 73.3473 104.492 74.2353 103.697C74.6793 103.293 75.1463 102.903 75.6133 102.513C75.797 102.356 75.9884 102.213 76.1722 102.064C76.4171 101.869 77.175 101.516 76.6468 101.254C75.3454 100.617 73.8296 101.269 72.6583 101.876C69.397 103.548 67.7894 107.04 67.4985 110.495C67.3224 112.616 67.4602 114.737 67.8659 116.821C68.2257 118.642 68.8611 120.456 70.0631 121.91C70.2774 122.172 70.5071 122.419 70.7597 122.652C71.7855 123.611 73.0487 124.263 74.3961 124.69C76.1415 125.252 77.841 125.927 79.6324 126.354C81.8755 126.886 84.2334 126.729 86.4612 127.351C88.0994 127.808 89.5923 128.947 90.2583 130.506C91.1004 132.477 90.3042 134.561 89.4468 136.382C89.2631 136.764 88.643 137.836 88.8803 138.248C89.2401 138.885 91.1233 137.169 91.4449 136.937C96.4975 133.227 102.752 132.56 108.486 130.401C112.742 128.797 116.961 126.706 120.367 123.701C124.05 120.456 126.385 116.026 125.412 111.095C125.405 111.042 125.298 110.728 125.328 110.698C125.328 110.698 112.49 125.177 100.762 109.386C100.762 109.386 124.134 112.609 122.794 94.9061C122.794 94.9061 136.689 101.374 140.272 115.307C140.272 115.307 141.726 112.339 140.164 108.179C140.501 108.517 151.273 119.391 152.819 135.595C152.819 135.595 163.276 113.328 130.266 88.618L130.228 88.648ZM108.364 82.922C108.364 82.922 111.831 82.2025 112.926 84.1511C114.013 86.0998 112.253 86.7293 112.253 86.7293C111.885 85.6351 110.882 84.1287 108.639 84.7282C106.396 85.3353 106.595 87.5013 106.595 87.5013C105.508 87.3214 105.807 86.2197 105.83 86.1073C103.854 89.3675 101.32 90.3418 101.16 90.4018C101.259 90.3343 102.989 89.0377 106.197 83.8513C109.504 78.5076 114.572 81.8502 114.572 81.8502C110.147 81.6104 108.356 82.922 108.356 82.922H108.364Z" fill="#272361"/>
<path d="M156.831 41.7983C156.831 41.7983 151.357 42.6677 140.509 32.9919C129.661 23.3162 128.597 22.2744 128.597 22.2744C128.597 22.2744 127.495 21.1802 127.74 22.5292C127.985 23.8933 128.842 25.9244 128.184 25.5197C127.518 25.0999 125.627 23.3836 125.642 25.085C125.673 26.7863 125.52 29.5069 128.513 32.5947C131.514 35.6825 123.368 30.1964 121.409 27.0186C119.449 23.8558 114.955 19.8611 114.128 21.5249C113.317 23.1888 113.079 24.4854 111.602 21.42C110.14 18.3322 106.955 12.4338 105.079 15.1394C103.204 17.845 103.433 21.2701 102.882 23.7134C102.316 26.1642 102.262 29.6643 101.405 26.9062C100.547 24.1481 99.6363 23.9158 99.9655 21.9297C100.287 19.9436 99.9655 19.1716 97.9598 20.5206C95.9693 21.8772 95.4028 22.7691 95.6631 20.8579C95.9234 18.9617 95.7167 18.0998 93.2593 20.4007C90.7866 22.7016 85.7799 27.0561 85.7799 27.0561C85.7799 27.0561 84.1339 29.0572 86.0861 31.6279C88.0229 34.1836 84.9378 31.2456 83.4296 31.1407C81.9368 31.0208 81.4928 30.5861 81.6995 32.0326C81.8067 32.872 80.3904 32.0626 79.533 31.7778C79.533 31.7778 79.4641 31.7478 79.3416 31.7253C78.4995 31.4555 75.0545 30.4962 72.7655 31.0058C72.7272 31.0208 72.6813 31.0208 72.6583 31.0358C70.6296 31.4555 67.4449 34.6183 64.421 36.3271C60.4172 38.5755 50.7406 42.9974 51.4143 41.7908C51.4143 41.7908 67.7358 33.0669 73.2095 25.7295C73.2095 25.7295 77.3588 25.9843 79.9081 26.1642C79.9081 26.1642 92.6086 15.0195 94.6373 13.558C96.666 12.0816 101.42 8.37914 102.668 7.59219C103.9 6.82023 104.421 5.60608 105.83 7.00011C107.254 8.37914 119.066 19.7712 120.214 20.3782C121.363 20.9853 124.54 18.7444 124.54 18.7444C124.54 18.7444 126.737 16.8332 128.145 18.2198C129.554 19.5988 147.644 38.5156 156.823 41.7983H156.831Z" fill="url(#paint1_radial_122_788)"/>
<path d="M182.852 68.562C184.406 71.1627 185.646 73.9433 186.687 76.7838C187.736 79.6243 188.586 82.5323 189.267 85.4852C190.63 91.3836 191.227 97.4543 191.097 103.51C190.936 109.566 190.071 115.622 188.417 121.475C186.749 127.328 184.337 132.972 181.267 138.263L179.82 137.446C182.883 132.305 185.294 126.796 187.016 121.085C188.747 115.374 189.719 109.438 189.987 103.473C190.224 97.5068 189.757 91.5035 188.517 85.6351C187.905 82.7046 187.116 79.8042 186.128 76.9712C185.141 74.1306 184.008 71.3501 182.852 68.5545V68.562Z" fill="url(#paint2_radial_122_788)"/>
<path d="M187.453 78.6425C190.4 77.5333 194.924 70.5931 190.01 62.8061C184.528 66.6284 185.018 74.9476 187.453 78.6425Z" fill="url(#paint3_radial_122_788)"/>
<path d="M186.84 79.0472C183.87 80.104 175.809 77.7806 174.293 68.7494C180.992 68.1124 186.205 74.7002 186.84 79.0472Z" fill="url(#paint4_radial_122_788)"/>
<path d="M190.339 91.6234C193.439 91.0238 199.112 84.9456 195.637 76.454C189.566 79.302 188.594 87.5837 190.339 91.6234Z" fill="url(#paint5_radial_122_788)"/>
<path d="M189.734 92.0431C186.657 92.7326 178.94 89.4649 178.557 80.3288C185.286 80.4937 189.635 87.6587 189.734 92.0431Z" fill="url(#paint6_radial_122_788)"/>
<path d="M190.936 106.583C194.09 106.538 200.789 101.554 198.921 92.5902C192.429 94.329 189.956 102.303 190.936 106.583Z" fill="url(#paint7_radial_122_788)"/>
<path d="M189.68 106.65C186.526 106.74 179.613 102.056 181.06 93.0174C187.621 94.4639 190.461 102.326 189.68 106.65Z" fill="url(#paint8_radial_122_788)"/>
<path d="M188.609 120.336C191.709 120.935 199.319 117.443 199.418 108.292C192.697 108.659 188.57 115.944 188.609 120.336Z" fill="url(#paint9_radial_122_788)"/>
<path d="M187.284 120.201C184.176 119.669 178.358 113.725 181.634 105.159C187.766 107.865 188.938 116.124 187.284 120.201Z" fill="url(#paint10_radial_122_788)"/>
<path d="M183.196 134.553C186.136 135.693 194.266 133.594 196.042 124.615C189.367 123.791 183.962 130.229 183.196 134.553Z" fill="url(#paint11_radial_122_788)"/>
<path d="M181.887 133.856C178.978 132.665 174.653 125.605 179.79 117.96C185.156 121.932 184.421 130.236 181.887 133.856Z" fill="url(#paint12_radial_122_788)"/>
<path d="M183.939 70.9828C185.608 68.3597 184.95 60.1529 176.238 56.8402C174.217 63.1208 179.729 69.4764 183.939 70.9828Z" fill="url(#paint13_radial_122_788)"/>
<path d="M26.5412 68.562C24.9872 71.1627 23.747 73.9433 22.7058 76.7838C21.657 79.6243 20.8073 82.5323 20.1259 85.4852C18.7632 91.3836 18.1661 97.4543 18.2962 103.51C18.457 109.566 19.3221 115.622 20.9757 121.475C22.6446 127.328 25.0561 132.972 28.1259 138.263L29.5728 137.446C26.5106 132.305 24.0991 126.796 22.3766 121.085C20.6465 115.374 19.6742 109.438 19.4063 103.473C19.169 97.5068 19.636 91.5035 20.8762 85.6351C21.4886 82.7046 22.2771 79.8042 23.2647 76.9712C24.2522 74.1306 25.3852 71.3501 26.5412 68.5545V68.562Z" fill="url(#paint14_radial_122_788)"/>
<path d="M21.9405 78.6425C18.9932 77.5333 14.4688 70.5931 19.3836 62.8061C24.8649 66.6284 24.375 74.9476 21.9405 78.6425Z" fill="url(#paint15_radial_122_788)"/>
<path d="M22.5527 79.0472C25.5231 80.104 33.5843 77.7806 35.1001 68.7494C28.4015 68.1124 23.1881 74.7002 22.5527 79.0472Z" fill="url(#paint16_radial_122_788)"/>
<path d="M19.0467 91.6234C15.9462 91.0238 10.2735 84.9456 13.7491 76.454C19.8199 79.302 20.7921 87.5837 19.0467 91.6234Z" fill="url(#paint17_radial_122_788)"/>
<path d="M19.6592 92.0431C22.7367 92.7326 30.4534 89.4649 30.8362 80.3288C24.107 80.4937 19.7587 87.6587 19.6592 92.0431Z" fill="url(#paint18_radial_122_788)"/>
<path d="M18.4574 106.583C15.3034 106.538 8.60481 101.554 10.4727 92.5902C16.9646 94.329 19.4373 102.303 18.4574 106.583Z" fill="url(#paint19_radial_122_788)"/>
<path d="M19.7053 106.65C22.8593 106.74 29.7723 102.056 28.3254 93.0174C21.7646 94.4639 18.9244 102.326 19.7053 106.65Z" fill="url(#paint20_radial_122_788)"/>
<path d="M20.7769 120.336C17.6764 120.935 10.0668 117.443 9.96729 108.292C16.6888 108.659 20.8151 115.944 20.7769 120.336Z" fill="url(#paint21_radial_122_788)"/>
<path d="M22.1089 120.201C25.2171 119.669 31.0352 113.725 27.7587 105.159C21.6266 107.865 20.4553 116.124 22.1089 120.201Z" fill="url(#paint22_radial_122_788)"/>
<path d="M26.197 134.553C23.2573 135.693 15.1272 133.594 13.3511 124.615C20.0267 123.791 25.4315 130.229 26.197 134.553Z" fill="url(#paint23_radial_122_788)"/>
<path d="M27.5061 133.856C30.4152 132.665 34.7405 125.605 29.6037 117.96C24.2372 121.932 24.9721 130.236 27.5061 133.856Z" fill="url(#paint24_radial_122_788)"/>
<path d="M25.4542 70.9828C23.7853 68.3597 24.4437 60.1529 33.1557 56.8402C35.1767 63.1208 29.6648 69.4764 25.4542 70.9828Z" fill="url(#paint25_radial_122_788)"/>
<path d="M46.9588 168.759C51.0239 168.759 54.3234 165.537 54.3234 161.557C53.6804 163.153 52.5091 164.495 51.0162 165.364L50.3885 164.9L51.6287 163.985L50.1282 163.611L50.9167 162.306L49.3856 162.524L49.6076 161.017L48.2756 161.797L47.8928 160.328L46.9588 161.549L46.0325 160.328L45.6497 161.797L44.3177 161.017L44.5397 162.524L43.0086 162.306L43.7971 163.611L42.2966 163.985L43.5368 164.9L42.9014 165.364C41.4162 164.487 40.2373 163.153 39.5942 161.557C39.5942 165.537 42.8938 168.759 46.9588 168.759Z" fill="url(#paint26_radial_122_788)"/>
<path d="M164.517 165.559L166.951 164.547L164.517 163.536L166.117 161.467L163.483 161.782L163.805 159.211L161.692 160.77L160.658 158.379L159.625 160.77L157.504 159.211L157.834 161.782L155.2 161.467L156.8 163.536L154.358 164.547L156.8 165.559L155.2 167.635L157.834 167.313L157.504 169.891L159.625 168.332L160.658 170.716L161.692 168.332L163.805 169.891L163.483 167.313L166.117 167.635L164.517 165.559Z" fill="url(#paint27_radial_122_788)"/>
<path d="M134.438 207.747C134.316 207.657 133.986 207.372 133.389 206.728C132.463 205.716 131.644 204.727 130.962 203.79L129.806 202.201C130.327 201.729 130.909 201.242 131.544 200.74C132.784 199.765 133.336 199.578 133.359 199.57C136.046 198.866 137.776 196.325 137.416 193.627C137.056 190.929 134.691 188.913 131.912 188.913H126.4C125.435 188.913 124.517 189.153 123.713 189.595C122.909 189.16 121.99 188.913 121.026 188.913H117.581C117.657 187.774 117.374 186.627 116.739 185.645C116.647 185.338 116.402 184.274 116.371 181.718V181.103C116.792 180.991 117.213 180.841 117.611 180.646C117.895 180.504 118.178 180.346 118.453 180.166C118.645 180.039 118.859 179.889 119.081 179.709C119.54 179.357 119.977 178.952 120.383 178.51C120.773 178.075 121.117 177.611 121.431 177.124C121.523 176.981 121.615 176.846 121.684 176.726C121.883 176.397 122.051 176.067 122.189 175.73C122.189 175.715 122.205 175.7 122.205 175.685C122.312 175.422 122.404 175.145 122.488 174.868C122.488 174.845 122.495 174.83 122.503 174.808C122.572 174.545 122.633 174.268 122.679 173.976C122.771 173.436 122.809 172.874 122.786 172.304C122.756 171.667 122.664 171.068 122.503 170.491C122.503 170.468 122.488 170.446 122.48 170.423L122.465 170.363C122.404 170.109 122.335 169.876 122.258 169.636C123.008 169.861 123.713 169.936 124.325 169.936H129.837C132.44 169.936 134.691 168.16 135.25 165.672C135.793 163.258 134.599 160.8 132.363 159.676C132.241 159.586 131.912 159.301 131.315 158.657C130.388 157.645 129.569 156.655 128.888 155.719L127.732 154.13C128.252 153.658 128.834 153.17 129.47 152.668C130.71 151.694 131.261 151.507 131.284 151.499C133.971 150.795 135.701 148.254 135.341 145.556C134.982 142.858 132.616 140.841 129.837 140.841H124.325C123.361 140.841 122.442 141.081 121.638 141.524C120.834 141.089 119.916 140.841 118.951 140.841H112.161C110.055 140.841 108.187 142.011 107.253 143.787C106.312 141.996 104.428 140.841 102.346 140.841H97.2859C96.8725 140.841 96.4744 140.901 96.084 140.984C95.6936 140.901 95.2955 140.841 94.8897 140.841H91.0849C90.0821 140.841 89.1175 141.104 88.2754 141.591C87.4333 141.104 86.4687 140.841 85.4658 140.841H78.3615C75.8428 140.841 73.6457 142.505 73.0026 144.889C72.4285 147.032 73.24 149.273 75.0007 150.585C75.1921 150.877 75.5825 151.536 76.2409 152.841L78.905 158.192C78.8514 160.38 78.6294 161.325 78.5452 161.617C77.5041 163.221 77.3969 165.259 78.2849 166.968C79.2266 168.789 81.1404 169.944 83.2304 169.944H87.3108C87.2725 170.019 87.2189 170.094 87.1806 170.176C86.9739 170.581 86.8132 171 86.6907 171.443C86.6141 171.72 86.5452 172.035 86.4916 172.357C86.3998 172.912 86.3691 173.474 86.3921 174.036C86.4151 174.575 86.4993 175.152 86.6447 175.715C86.6677 175.812 86.6983 175.909 86.729 176.007C86.7825 176.239 86.8514 176.479 86.9357 176.719C86.9357 176.734 86.951 176.756 86.951 176.771C87.1117 177.244 87.3261 177.701 87.5864 178.113C87.8467 178.548 88.2065 178.99 88.6199 179.395C89.2706 180.032 90.0208 180.534 90.8629 180.893C91.1845 181.036 91.529 181.141 91.8735 181.231V181.74C91.8428 184.296 91.5979 185.36 91.506 185.668C90.8706 186.657 90.5873 187.804 90.6639 188.935H88.3902C86.9892 188.935 85.6878 189.452 84.6926 190.322C84.4553 190.134 84.2026 189.97 83.9424 189.812C82.9242 189.228 81.7605 188.935 80.4055 188.935H76.2792C73.7605 188.935 71.5558 190.599 70.9203 192.99C70.4687 194.676 70.8821 196.43 71.9385 197.734C71.9385 197.764 71.9385 197.787 71.9385 197.802C71.9385 197.929 71.9615 198.244 71.9615 198.866V205.769C71.9309 208.324 71.6859 209.389 71.594 209.696C70.5529 211.3 70.4457 213.338 71.3337 215.047C72.2754 216.868 74.1892 218.022 76.2792 218.022H80.061C81.3625 218.022 82.595 217.573 83.5672 216.801C84.662 217.588 86.0017 218.022 87.4562 218.022H92.1414C92.3328 218.022 92.5242 218 92.7079 217.985C92.8687 218 93.0371 218.022 93.2055 218.022H97.9979C99.9653 218.022 101.764 217.003 102.76 215.377C103.272 216.044 103.893 216.613 104.605 217.041C105.669 217.693 106.924 218.022 108.333 218.022H113.447C113.569 218.022 113.684 218 113.799 217.993C113.944 218.007 114.09 218.022 114.243 218.022H121.033C121.921 218.022 122.779 217.813 123.544 217.438C124.601 217.888 125.588 218.022 126.415 218.022H131.927C134.53 218.022 136.781 216.246 137.339 213.758C137.883 211.345 136.689 208.886 134.453 207.762L134.438 207.747Z" fill="url(#paint28_radial_122_788)"/>
<path d="M78.3618 146.268H85.4661C85.3436 146.665 85.29 147.115 85.3054 147.609C85.3207 148.104 85.4967 148.808 85.8259 149.73C86.1551 150.652 86.6527 151.806 87.3264 153.193L88.2604 155.044L89.1944 153.193C89.8833 151.806 90.3963 150.645 90.7255 149.73C91.0546 148.808 91.2231 148.104 91.246 147.609C91.2613 147.115 91.2078 146.665 91.0853 146.268H94.89C94.4843 146.493 94.0633 146.927 93.6269 147.572C93.1905 148.216 92.6623 149.168 92.0422 150.435L88.7963 156.948V157.705C88.8345 161.197 89.2403 163.461 90.0211 164.502H83.2307C84.0116 163.461 84.4173 161.19 84.4556 157.705V156.948L81.2097 150.435C80.5743 149.168 80.0384 148.209 79.6097 147.572C79.181 146.935 78.7676 146.493 78.3618 146.268Z" fill="#272660"/>
<path d="M97.286 146.268H102.346L107.299 158.094C108.984 161.932 110.346 164.068 111.372 164.502H106.258C105.906 164.502 105.631 164.442 105.447 164.33C105.263 164.218 105.102 164.038 104.98 163.798L102.798 158.537H95.931L95.8009 158.874C95.464 159.728 95.3033 160.778 95.3186 162.037C95.3339 163.296 95.5406 164.12 95.931 164.502H91.1387C91.4908 164.263 91.8277 163.925 92.1492 163.498C92.4707 163.071 92.7769 162.554 93.0832 161.932C93.3817 161.317 93.6114 160.823 93.7645 160.448C93.9176 160.073 94.1243 159.578 94.3923 158.949L97.776 150.27C98.1664 149.228 98.3272 148.434 98.2583 147.902C98.1894 147.362 97.8679 146.815 97.3013 146.26L97.286 146.268ZM99.2535 150.045L96.4286 157.262H102.254L99.2458 150.045H99.2535Z" fill="#272660"/>
<path d="M112.16 146.268H118.951C118.668 146.425 118.43 146.665 118.247 146.987C118.063 147.309 117.933 147.714 117.871 148.201C117.81 148.688 117.772 149.093 117.749 149.423C117.726 149.753 117.726 150.202 117.726 150.78V155.052L120.735 151.769C120.735 151.769 120.788 151.694 120.842 151.641C121.393 151.034 121.837 150.54 122.174 150.157C122.511 149.775 122.916 149.281 123.399 148.673C123.881 148.066 124.195 147.557 124.356 147.152C124.516 146.747 124.509 146.455 124.325 146.275H129.837C128.773 146.552 127.494 147.279 126.002 148.449C124.509 149.618 123.269 150.75 122.273 151.821L120.597 153.672L124.379 158.881C125.175 159.976 126.116 161.107 127.188 162.284C128.26 163.453 129.148 164.203 129.837 164.51H124.325C123.491 164.51 122.626 163.85 121.715 162.531L117.726 156.933V160.006C117.726 161.917 118.132 163.416 118.951 164.51H112.16C112.941 163.468 113.347 161.197 113.385 157.712V150.78C113.385 150.21 113.378 149.753 113.355 149.423C113.332 149.093 113.294 148.688 113.232 148.201C113.171 147.714 113.049 147.309 112.857 146.987C112.673 146.665 112.436 146.425 112.153 146.268H112.16Z" fill="#272660"/>
<path d="M93.8944 172.792C94.0169 172.792 94.1241 172.792 94.216 172.807C94.3078 172.814 94.3997 172.837 94.4763 172.867C94.5528 172.904 94.6294 172.942 94.7136 172.994C94.7901 173.046 94.8667 173.106 94.9356 173.174C95.0887 173.324 95.2112 173.504 95.3031 173.706C95.3873 173.908 95.4332 174.133 95.4332 174.366C95.4332 174.583 95.3873 174.8 95.3031 175.003C95.2188 175.205 95.0964 175.385 94.9356 175.535C94.7748 175.685 94.5988 175.805 94.3921 175.887C94.1854 175.969 93.971 176.014 93.7413 176.014C93.4964 176.014 93.2744 175.969 93.0753 175.887C92.8763 175.805 92.7002 175.685 92.5394 175.535C92.4552 175.452 92.3863 175.362 92.3327 175.28C92.2791 175.197 92.2409 175.1 92.2026 175.003C92.172 174.898 92.1413 174.793 92.1107 174.68C92.0877 174.568 92.0571 174.463 92.0188 174.366C91.9653 174.163 91.9346 173.961 91.927 173.766C91.9193 173.571 91.927 173.369 91.9653 173.166C91.9806 173.046 92.0035 172.942 92.0265 172.852C92.0495 172.762 92.0877 172.672 92.1337 172.582C92.1796 172.492 92.2255 172.409 92.2791 172.327C92.3327 172.245 92.3863 172.147 92.4322 172.05C92.5854 171.795 92.7691 171.562 92.9681 171.353C93.1672 171.143 93.3586 170.955 93.5499 170.806C93.6571 170.723 93.7413 170.656 93.8255 170.603C93.9021 170.551 93.9787 170.513 94.0476 170.476C94.1165 170.446 94.1854 170.416 94.2543 170.401C94.3232 170.386 94.3997 170.363 94.4916 170.348L94.8054 170.783C94.7365 170.835 94.6753 170.873 94.6217 170.91C94.5681 170.948 94.5145 170.985 94.4686 171.023C94.415 171.068 94.3691 171.113 94.3232 171.165C94.2772 171.218 94.2236 171.278 94.1547 171.345C94.0169 171.465 93.8868 171.592 93.7796 171.727C93.6648 171.862 93.5653 171.997 93.4811 172.132C93.3739 172.304 93.2897 172.469 93.2208 172.627C93.1519 172.792 93.1136 172.934 93.1136 173.069C93.0983 173.121 93.1212 173.136 93.1901 173.106C93.259 173.084 93.3356 173.046 93.4275 173.001C93.5117 172.957 93.6035 172.912 93.7031 172.859C93.7949 172.807 93.8638 172.784 93.8944 172.784V172.792Z" fill="#272660"/>
<path d="M96.1913 170.303H100.318C100.654 170.303 100.899 170.348 101.052 170.431C101.206 170.521 101.366 170.693 101.542 170.955L109.527 184.686V174.808C109.527 174.238 109.519 173.781 109.497 173.451C109.474 173.121 109.435 172.717 109.366 172.23C109.297 171.742 109.167 171.338 108.991 171.015C108.815 170.693 108.586 170.453 108.302 170.296H112.053C111.77 170.453 111.541 170.693 111.364 171.015C111.188 171.338 111.066 171.742 110.989 172.23C110.92 172.717 110.875 173.121 110.859 173.451C110.844 173.781 110.836 174.231 110.836 174.808V181.74C110.875 185.233 111.28 187.496 112.061 188.538H107.376C106.97 188.538 106.672 188.373 106.496 188.043L98.7252 174.68V181.74C98.7635 185.218 99.1769 187.481 99.9731 188.538H96.1913C96.9721 187.496 97.3779 185.225 97.4161 181.74V174.808C97.4161 174.238 97.4085 173.781 97.3855 173.451C97.3625 173.121 97.3243 172.717 97.263 172.23C97.2018 171.742 97.0793 171.338 96.8879 171.015C96.7042 170.693 96.4668 170.453 96.1836 170.296L96.1913 170.303Z" fill="#272660"/>
<path d="M115.292 173.481C115.169 173.481 115.062 173.481 114.97 173.466C114.878 173.459 114.787 173.436 114.71 173.406C114.633 173.376 114.557 173.331 114.488 173.279C114.419 173.226 114.343 173.166 114.251 173.099C114.098 172.949 113.975 172.769 113.891 172.567C113.807 172.364 113.761 172.155 113.761 171.93C113.761 171.69 113.807 171.473 113.891 171.27C113.975 171.068 114.098 170.888 114.251 170.738C114.404 170.588 114.588 170.468 114.794 170.386C115.001 170.303 115.215 170.258 115.445 170.258C115.69 170.258 115.912 170.303 116.119 170.386C116.325 170.468 116.509 170.588 116.662 170.738C116.731 170.821 116.792 170.91 116.846 170.993C116.899 171.075 116.938 171.173 116.976 171.27C117.014 171.375 117.037 171.48 117.068 171.592C117.099 171.705 117.121 171.817 117.16 171.937C117.213 172.125 117.244 172.319 117.252 172.522C117.259 172.724 117.252 172.919 117.213 173.106C117.198 173.226 117.175 173.331 117.152 173.429C117.129 173.519 117.099 173.609 117.06 173.698C117.022 173.781 116.984 173.871 116.93 173.953C116.877 174.036 116.815 174.133 116.746 174.231C116.593 174.485 116.417 174.718 116.226 174.928C116.034 175.137 115.835 175.325 115.629 175.475C115.521 175.557 115.437 175.625 115.353 175.677C115.277 175.73 115.2 175.767 115.131 175.805C115.062 175.842 114.993 175.864 114.924 175.879C114.855 175.894 114.779 175.917 114.687 175.932L114.373 175.497C114.457 175.467 114.526 175.422 114.58 175.385C114.633 175.347 114.679 175.302 114.725 175.257L114.871 175.115L115.055 174.935C115.177 174.815 115.292 174.688 115.407 174.553C115.522 174.418 115.621 174.283 115.705 174.148C115.812 173.976 115.897 173.811 115.966 173.654C116.034 173.496 116.08 173.346 116.096 173.211C116.096 173.159 116.065 173.151 115.988 173.174C115.92 173.196 115.843 173.234 115.751 173.286C115.667 173.339 115.575 173.384 115.491 173.429C115.407 173.474 115.338 173.489 115.284 173.489L115.292 173.481Z" fill="#272660"/>
<path d="M76.287 194.339H80.4133C80.7501 194.339 80.9951 194.384 81.1482 194.466C81.3013 194.556 81.4621 194.729 81.6381 194.991L89.6228 208.721V198.843C89.6228 198.274 89.6152 197.817 89.5922 197.487C89.5692 197.157 89.531 196.752 89.4621 196.265C89.3932 195.778 89.263 195.373 89.087 195.051C88.9109 194.729 88.6812 194.489 88.398 194.332H92.1492C91.8659 194.489 91.6362 194.729 91.4602 195.051C91.2841 195.373 91.1616 195.778 91.085 196.265C91.0161 196.752 90.9702 197.157 90.9549 197.487C90.9396 197.817 90.9319 198.266 90.9319 198.843V205.776C90.9702 209.269 91.3759 211.532 92.1568 212.574H87.4716C87.0659 212.574 86.7673 212.409 86.5913 212.079L78.8209 198.716V205.776C78.8592 209.254 79.2726 211.517 80.0688 212.574H76.287C77.0678 211.532 77.4736 209.261 77.5118 205.776V198.843C77.5118 198.274 77.5042 197.817 77.4812 197.487C77.4582 197.157 77.42 196.752 77.3587 196.265C77.2975 195.778 77.175 195.373 76.9836 195.051C76.7999 194.729 76.5626 194.489 76.2793 194.332L76.287 194.339Z" fill="#272660"/>
<path d="M99.3607 194.339H104.421L109.374 206.166C111.058 210.003 112.421 212.139 113.447 212.574H108.333C107.981 212.574 107.705 212.514 107.522 212.401C107.338 212.289 107.177 212.109 107.055 211.869L104.873 206.608H98.0057L97.8756 206.945C97.5387 207.8 97.378 208.849 97.3933 210.108C97.4086 211.367 97.6153 212.192 98.0057 212.574H93.2134C93.5655 212.334 93.9024 211.997 94.2239 211.57C94.5454 211.142 94.8517 210.625 95.1579 210.003C95.4564 209.389 95.6861 208.894 95.8392 208.519C95.9923 208.144 96.199 207.65 96.467 207.02L99.8507 198.341C100.241 197.3 100.402 196.505 100.333 195.973C100.264 195.433 99.9426 194.886 99.3761 194.332L99.3607 194.339ZM101.328 198.116L98.5033 205.334H104.329L101.321 198.116H101.328Z" fill="#272660"/>
<path d="M114.235 194.339H121.026C120.742 194.496 120.505 194.736 120.321 195.059C120.138 195.381 120.007 195.786 119.946 196.273C119.885 196.76 119.847 197.165 119.824 197.494C119.801 197.824 119.801 198.274 119.801 198.851V203.123L122.809 199.84C122.809 199.84 122.863 199.765 122.917 199.713C123.468 199.106 123.912 198.611 124.249 198.229C124.585 197.847 124.991 197.352 125.473 196.745C125.956 196.138 126.27 195.628 126.43 195.223C126.591 194.819 126.584 194.526 126.4 194.347H131.912C130.848 194.624 129.569 195.351 128.076 196.52C126.584 197.689 125.343 198.821 124.348 199.893L122.672 201.744L126.453 206.953C127.25 208.047 128.191 209.179 129.263 210.355C130.335 211.525 131.223 212.274 131.912 212.581H126.4C125.565 212.581 124.7 211.922 123.789 210.603L119.801 205.004V208.077C119.801 209.988 120.206 211.487 121.026 212.581H114.235C115.016 211.54 115.422 209.269 115.46 205.784V198.851C115.46 198.281 115.452 197.824 115.429 197.494C115.406 197.165 115.368 196.76 115.307 196.273C115.246 195.786 115.123 195.381 114.932 195.059C114.748 194.736 114.511 194.496 114.228 194.339H114.235Z" fill="#272660"/>
</g>
<defs>
<radialGradient id="paint0_radial_122_788" cx="0" cy="0" r="1" gradientUnits="userSpaceOnUse" gradientTransform="translate(104.099 101.914) scale(67.6746 66.2537)">
<stop stop-color="#FFD041"/>
<stop offset="1" stop-color="#FEBF10"/>
</radialGradient>
<radialGradient id="paint1_radial_122_788" cx="0" cy="0" r="1" gradientUnits="userSpaceOnUse" gradientTransform="translate(104.107 24.1856) scale(39.4411 38.613)">
<stop stop-color="#FFD041"/>
<stop offset="1" stop-color="#FEBF10"/>
</radialGradient>
<radialGradient id="paint2_radial_122_788" cx="0" cy="0" r="1" gradientUnits="userSpaceOnUse" gradientTransform="translate(185.47 103.413) scale(25.4852 24.95)">
<stop stop-color="#FFD041"/>
<stop offset="1" stop-color="#FEBF10"/>
</radialGradient>
<radialGradient id="paint3_radial_122_788" cx="0" cy="0" r="1" gradientUnits="userSpaceOnUse" gradientTransform="translate(188.953 70.7205) scale(6.16268 6.03328)">
<stop stop-color="#FFD041"/>
<stop offset="1" stop-color="#FEBF10"/>
</radialGradient>
<radialGradient id="paint4_radial_122_788" cx="0" cy="0" r="1" gradientUnits="userSpaceOnUse" gradientTransform="translate(180.563 73.9957) scale(5.85646 5.73349)">
<stop stop-color="#FFD041"/>
<stop offset="1" stop-color="#FEBF10"/>
</radialGradient>
<radialGradient id="paint5_radial_122_788" cx="0" cy="0" r="1" gradientUnits="userSpaceOnUse" gradientTransform="translate(193.149 84.0387) scale(6.03254 5.90587)">
<stop stop-color="#FFD041"/>
<stop offset="1" stop-color="#FEBF10"/>
</radialGradient>
<radialGradient id="paint6_radial_122_788" cx="0" cy="0" r="1" gradientUnits="userSpaceOnUse" gradientTransform="translate(184.146 86.2272) scale(5.81052 5.68852)">
<stop stop-color="#FFD041"/>
<stop offset="1" stop-color="#FEBF10"/>
</radialGradient>
<radialGradient id="paint7_radial_122_788" cx="0" cy="0" r="1" gradientUnits="userSpaceOnUse" gradientTransform="translate(194.986 99.5903) scale(5.87942 5.75598)">
<stop stop-color="#FFD041"/>
<stop offset="1" stop-color="#FEBF10"/>
</radialGradient>
<radialGradient id="paint8_radial_122_788" cx="0" cy="0" r="1" gradientUnits="userSpaceOnUse" gradientTransform="translate(185.34 99.8302) scale(5.84881 5.72599)">
<stop stop-color="#FFD041"/>
<stop offset="1" stop-color="#FEBF10"/>
</radialGradient>
<radialGradient id="paint9_radial_122_788" cx="0" cy="0" r="1" gradientUnits="userSpaceOnUse" gradientTransform="translate(194.013 114.348) scale(5.81052 5.68852)">
<stop stop-color="#FFD041"/>
<stop offset="1" stop-color="#FEBF10"/>
</radialGradient>
<radialGradient id="paint10_radial_122_788" cx="0" cy="0" r="1" gradientUnits="userSpaceOnUse" gradientTransform="translate(184.314 112.676) scale(6.01723 5.89088)">
<stop stop-color="#FFD041"/>
<stop offset="1" stop-color="#FEBF10"/>
</radialGradient>
<radialGradient id="paint11_radial_122_788" cx="0" cy="0" r="1" gradientUnits="userSpaceOnUse" gradientTransform="translate(189.619 129.689) scale(5.87176 5.74848)">
<stop stop-color="#FFD041"/>
<stop offset="1" stop-color="#FEBF10"/>
</radialGradient>
<radialGradient id="paint12_radial_122_788" cx="0" cy="0" r="1" gradientUnits="userSpaceOnUse" gradientTransform="translate(180.616 125.904) scale(6.17033 6.04078)">
<stop stop-color="#FFD041"/>
<stop offset="1" stop-color="#FEBF10"/>
</radialGradient>
<radialGradient id="paint13_radial_122_788" cx="0" cy="0" r="1" gradientUnits="userSpaceOnUse" gradientTransform="translate(180.234 63.9078) scale(5.99426 5.8684)">
<stop stop-color="#FFD041"/>
<stop offset="1" stop-color="#FEBF10"/>
</radialGradient>
<radialGradient id="paint14_radial_122_788" cx="0" cy="0" r="1" gradientUnits="userSpaceOnUse" gradientTransform="translate(23.9154 103.413) scale(25.4852 24.95)">
<stop stop-color="#FFD041"/>
<stop offset="1" stop-color="#FEBF10"/>
</radialGradient>
<radialGradient id="paint15_radial_122_788" cx="0" cy="0" r="1" gradientUnits="userSpaceOnUse" gradientTransform="translate(20.44 70.7205) scale(6.16268 6.03328)">
<stop stop-color="#FFD041"/>
<stop offset="1" stop-color="#FEBF10"/>
</radialGradient>
<radialGradient id="paint16_radial_122_788" cx="0" cy="0" r="1" gradientUnits="userSpaceOnUse" gradientTransform="translate(28.8226 73.9957) scale(5.85646 5.73349)">
<stop stop-color="#FFD041"/>
<stop offset="1" stop-color="#FEBF10"/>
</radialGradient>
<radialGradient id="paint17_radial_122_788" cx="0" cy="0" r="1" gradientUnits="userSpaceOnUse" gradientTransform="translate(16.2448 84.0387) scale(6.03254 5.90587)">
<stop stop-color="#FFD041"/>
<stop offset="1" stop-color="#FEBF10"/>
</radialGradient>
<radialGradient id="paint18_radial_122_788" cx="0" cy="0" r="1" gradientUnits="userSpaceOnUse" gradientTransform="translate(25.2477 86.2272) scale(5.81053 5.68852)">
<stop stop-color="#FFD041"/>
<stop offset="1" stop-color="#FEBF10"/>
</radialGradient>
<radialGradient id="paint19_radial_122_788" cx="0" cy="0" r="1" gradientUnits="userSpaceOnUse" gradientTransform="translate(14.4077 99.5903) scale(5.87943 5.75598)">
<stop stop-color="#FFD041"/>
<stop offset="1" stop-color="#FEBF10"/>
</radialGradient>
<radialGradient id="paint20_radial_122_788" cx="0" cy="0" r="1" gradientUnits="userSpaceOnUse" gradientTransform="translate(24.0536 99.8302) scale(5.8488 5.72599)">
<stop stop-color="#FFD041"/>
<stop offset="1" stop-color="#FEBF10"/>
</radialGradient>
<radialGradient id="paint21_radial_122_788" cx="0" cy="0" r="1" gradientUnits="userSpaceOnUse" gradientTransform="translate(15.3721 114.348) scale(5.81053 5.68852)">
<stop stop-color="#FFD041"/>
<stop offset="1" stop-color="#FEBF10"/>
</radialGradient>
<radialGradient id="paint22_radial_122_788" cx="0" cy="0" r="1" gradientUnits="userSpaceOnUse" gradientTransform="translate(25.0793 112.676) scale(6.01722 5.89088)">
<stop stop-color="#FFD041"/>
<stop offset="1" stop-color="#FEBF10"/>
</radialGradient>
<radialGradient id="paint23_radial_122_788" cx="0" cy="0" r="1" gradientUnits="userSpaceOnUse" gradientTransform="translate(19.774 129.689) scale(5.87177 5.74848)">
<stop stop-color="#FFD041"/>
<stop offset="1" stop-color="#FEBF10"/>
</radialGradient>
<radialGradient id="paint24_radial_122_788" cx="0" cy="0" r="1" gradientUnits="userSpaceOnUse" gradientTransform="translate(28.7769 125.904) scale(6.17033 6.04078)">
<stop stop-color="#FFD041"/>
<stop offset="1" stop-color="#FEBF10"/>
</radialGradient>
<radialGradient id="paint25_radial_122_788" cx="0" cy="0" r="1" gradientUnits="userSpaceOnUse" gradientTransform="translate(29.1519 63.9078) scale(5.99426 5.8684)">
<stop stop-color="#FFD041"/>
<stop offset="1" stop-color="#FEBF10"/>
</radialGradient>
<radialGradient id="paint26_radial_122_788" cx="0" cy="0" r="1" gradientUnits="userSpaceOnUse" gradientTransform="translate(46.9588 164.547) scale(6.03254 5.90587)">
<stop stop-color="#FFD041"/>
<stop offset="1" stop-color="#FEBF10"/>
</radialGradient>
<radialGradient id="paint27_radial_122_788" cx="0" cy="0" r="1" gradientUnits="userSpaceOnUse" gradientTransform="translate(160.658 164.547) scale(6.30048 6.16818)">
<stop stop-color="#FFD041"/>
<stop offset="1" stop-color="#FEBF10"/>
</radialGradient>
<radialGradient id="paint28_radial_122_788" cx="0" cy="0" r="1" gradientUnits="userSpaceOnUse" gradientTransform="translate(696.222 564.857) scale(601.638 589.005)">
<stop stop-color="#FFD041"/>
<stop offset="1" stop-color="#FEBF10"/>
</radialGradient>
<clipPath id="clip0_122_788">
<rect width="208" height="218" fill="white"/>
</clipPath>
</defs>
</svg>
