<svg width="20" height="20" viewBox="0 0 20 20" fill="none" xmlns="http://www.w3.org/2000/svg">
<path d="M15.875 4.09155C15.111 3.31982 14.201 2.70794 13.198 2.2916C12.1951 1.87525 11.1192 1.66277 10.0333 1.66655C5.48331 1.66655 1.77498 5.37489 1.77498 9.92489C1.77498 11.3832 2.15831 12.7999 2.87498 14.0499L1.70831 18.3332L6.08331 17.1832C7.29165 17.8416 8.64998 18.1916 10.0333 18.1916C14.5833 18.1916 18.2916 14.4832 18.2916 9.93322C18.2916 7.72489 17.4333 5.64989 15.875 4.09155ZM10.0333 16.7916C8.79998 16.7916 7.59165 16.4582 6.53331 15.8332L6.28331 15.6832L3.68331 16.3666L4.37498 13.8332L4.20831 13.5749C3.5231 12.4807 3.15926 11.2159 3.15831 9.92489C3.15831 6.14155 6.24165 3.05822 10.025 3.05822C11.8583 3.05822 13.5833 3.77489 14.875 5.07489C15.5145 5.71152 16.0214 6.46877 16.3661 7.30274C16.7109 8.13671 16.8867 9.03081 16.8833 9.93322C16.9 13.7166 13.8166 16.7916 10.0333 16.7916ZM13.8 11.6582C13.5916 11.5582 12.575 11.0582 12.3916 10.9832C12.2 10.9166 12.0666 10.8832 11.925 11.0832C11.7833 11.2916 11.3916 11.7582 11.275 11.8916C11.1583 12.0332 11.0333 12.0499 10.825 11.9416C10.6166 11.8416 9.94998 11.6166 9.16665 10.9166C8.54998 10.3666 8.14165 9.69155 8.01665 9.48322C7.89998 9.27489 7.99998 9.16655 8.10831 9.05822C8.19998 8.96655 8.31665 8.81655 8.41665 8.69989C8.51665 8.58322 8.55831 8.49155 8.62498 8.35822C8.69165 8.21655 8.65831 8.09989 8.60831 7.99989C8.55831 7.89989 8.14165 6.88322 7.97498 6.46655C7.80831 6.06655 7.63331 6.11655 7.50831 6.10822H7.10831C6.96665 6.10822 6.74998 6.15822 6.55831 6.36655C6.37498 6.57489 5.84165 7.07489 5.84165 8.09155C5.84165 9.10822 6.58331 10.0916 6.68331 10.2249C6.78331 10.3666 8.14165 12.4499 10.2083 13.3416C10.7 13.5582 11.0833 13.6832 11.3833 13.7749C11.875 13.9332 12.325 13.9082 12.6833 13.8582C13.0833 13.7999 13.9083 13.3582 14.075 12.8749C14.25 12.3916 14.25 11.9832 14.1916 11.8916C14.1333 11.7999 14.0083 11.7582 13.8 11.6582Z" fill="#F8F8F8"/>
</svg>
