<svg width="42" height="43" viewBox="0 0 42 43" fill="none" xmlns="http://www.w3.org/2000/svg">
<path d="M41.4524 36.4535C41.4524 37.2979 41.1576 38.0149 40.5681 38.6044L38.011 41.1854C37.3896 41.7749 36.6647 42.0697 35.8362 42.0697C34.9918 42.0697 34.2748 41.7749 33.6853 41.1854L25.0101 32.4863C24.4047 31.9128 24.102 31.1958 24.102 30.3355C24.102 29.491 24.4445 28.7263 25.1296 28.0412L19.0116 21.9231L16.0003 24.9344C15.7773 25.1574 15.5064 25.269 15.1878 25.269C14.8691 25.269 14.5983 25.1574 14.3752 24.9344C14.4071 24.9662 14.5067 25.0618 14.674 25.2212C14.8413 25.3805 14.9408 25.484 14.9727 25.5318C15.0046 25.5796 15.0842 25.6712 15.2117 25.8067C15.3391 25.9421 15.4188 26.0496 15.4507 26.1293C15.4825 26.209 15.5303 26.3165 15.5941 26.4519C15.6578 26.5874 15.7016 26.7188 15.7255 26.8463C15.7494 26.9737 15.7614 27.1171 15.7614 27.2764C15.7614 27.8819 15.5383 28.4236 15.0922 28.9015C15.0444 28.9493 14.913 29.0927 14.6979 29.3317C14.4828 29.5707 14.3314 29.734 14.2438 29.8216C14.1562 29.9093 14.0088 30.0407 13.8017 30.216C13.5945 30.3912 13.4193 30.5147 13.2759 30.5864C13.1325 30.6581 12.9573 30.7298 12.7501 30.8015C12.543 30.8732 12.3359 30.909 12.1288 30.909C11.4915 30.909 10.9498 30.686 10.5037 30.2399L0.753024 20.4892C0.306916 20.0431 0.0838623 19.5014 0.0838623 18.8641C0.0838623 18.657 0.11971 18.4499 0.191406 18.2428C0.263102 18.0356 0.334798 17.8604 0.406494 17.717C0.47819 17.5736 0.601666 17.3983 0.776922 17.1912C0.952179 16.9841 1.08362 16.8367 1.17125 16.7491C1.25888 16.6615 1.42219 16.5101 1.66117 16.295C1.90016 16.0799 2.04355 15.9485 2.09135 15.9007C2.56932 15.4546 3.11102 15.2315 3.71645 15.2315C3.87578 15.2315 4.01917 15.2435 4.14663 15.2674C4.27409 15.2913 4.40553 15.3351 4.54096 15.3988C4.67638 15.4626 4.78393 15.5104 4.86359 15.5422C4.94325 15.5741 5.05079 15.6537 5.18622 15.7812C5.32164 15.9087 5.41326 15.9883 5.46105 16.0202C5.50885 16.0521 5.61241 16.1516 5.77173 16.3189C5.93106 16.4862 6.02665 16.5858 6.05852 16.6177C5.83546 16.3946 5.72394 16.1237 5.72394 15.8051C5.72394 15.4865 5.83546 15.2156 6.05852 14.9925L14.3752 6.67583C14.5983 6.45277 14.8691 6.34125 15.1878 6.34125C15.5064 6.34125 15.7773 6.45277 16.0003 6.67583C15.9685 6.64396 15.8689 6.54837 15.7016 6.38904C15.5343 6.22972 15.4347 6.12616 15.4029 6.07836C15.371 6.03056 15.2914 5.93895 15.1639 5.80353C15.0364 5.6681 14.9568 5.56056 14.9249 5.4809C14.893 5.40123 14.8452 5.29369 14.7815 5.15827C14.7178 5.02284 14.674 4.8914 14.6501 4.76394C14.6262 4.63648 14.6142 4.49309 14.6142 4.33376C14.6142 3.72833 14.8373 3.18663 15.2834 2.70866C15.3312 2.66086 15.4626 2.51747 15.6777 2.27848C15.8928 2.03949 16.0442 1.87619 16.1318 1.78856C16.2194 1.70093 16.3668 1.56949 16.5739 1.39423C16.781 1.21898 16.9563 1.0955 17.0997 1.0238C17.2431 0.952107 17.4183 0.880412 17.6255 0.808716C17.8326 0.73702 18.0397 0.701172 18.2468 0.701172C18.8841 0.701172 19.4258 0.924226 19.8719 1.37033L29.6226 11.121C30.0687 11.5671 30.2917 12.1088 30.2917 12.7461C30.2917 12.9532 30.2559 13.1603 30.1842 13.3674C30.1125 13.5746 30.0408 13.7498 29.9691 13.8932C29.8974 14.0366 29.7739 14.2119 29.5987 14.419C29.4234 14.6261 29.292 14.7735 29.2043 14.8611C29.1167 14.9487 28.9534 15.1001 28.7144 15.3152C28.4754 15.5303 28.332 15.6617 28.2842 15.7095C27.8063 16.1556 27.2646 16.3787 26.6591 16.3787C26.4998 16.3787 26.3564 16.3667 26.229 16.3428C26.1015 16.3189 25.9701 16.2751 25.8346 16.2114C25.6992 16.1476 25.5917 16.0999 25.512 16.068C25.4323 16.0361 25.3248 15.9565 25.1894 15.829C25.0539 15.7015 24.9623 15.6219 24.9145 15.59C24.8667 15.5581 24.7632 15.4586 24.6038 15.2913C24.4445 15.124 24.3489 15.0244 24.3171 14.9925C24.5401 15.2156 24.6516 15.4865 24.6516 15.8051C24.6516 16.1237 24.5401 16.3946 24.3171 16.6177L21.3058 19.6289L27.4239 25.7469C28.109 25.0618 28.8737 24.7193 29.7182 24.7193C30.5466 24.7193 31.2716 25.014 31.8929 25.6035L40.5681 34.2787C41.1576 34.9001 41.4524 35.625 41.4524 36.4535Z" fill="url(#paint0_linear_4_111)"/>
<defs>
<linearGradient id="paint0_linear_4_111" x1="47.4215" y1="18.0834" x2="-2.57274" y2="35.4888" gradientUnits="userSpaceOnUse">
<stop stop-color="#004767"/>
<stop offset="0.533286" stop-color="#4DC8FF"/>
<stop offset="1" stop-color="#00B0FF"/>
</linearGradient>
</defs>
</svg>
