<svg width="37" height="43" viewBox="0 0 37 43" fill="none" xmlns="http://www.w3.org/2000/svg">
<path fill-rule="evenodd" clip-rule="evenodd" d="M5.44212 0.701172C4.06256 0.701172 2.7395 1.24598 1.764 2.21574C0.788506 3.1855 0.240479 4.50078 0.240479 5.87224V42.0697L9.34334 36.8986L18.4462 42.0697L27.5491 36.8986L36.6519 42.0697V5.87224C36.6519 4.50078 36.1039 3.1855 35.1284 2.21574C34.1529 1.24598 32.8299 0.701172 31.4503 0.701172H5.44212ZM11.9442 8.45777C10.9095 8.45777 9.9172 8.86637 9.18558 9.5937C8.45396 10.321 8.04294 11.3075 8.04294 12.3361C8.04294 13.3647 8.45396 14.3511 9.18558 15.0784C9.9172 15.8058 10.9095 16.2144 11.9442 16.2144C12.9788 16.2144 13.9711 15.8058 14.7027 15.0784C15.4344 14.3511 15.8454 13.3647 15.8454 12.3361C15.8454 11.3075 15.4344 10.321 14.7027 9.5937C13.9711 8.86637 12.9788 8.45777 11.9442 8.45777ZM28.0874 9.21533C27.5997 8.73062 26.9383 8.45832 26.2487 8.45832C25.559 8.45832 24.8976 8.73062 24.4099 9.21533L8.80498 24.7285C8.55657 24.967 8.35843 25.2523 8.22213 25.5678C8.08582 25.8832 8.01407 26.2225 8.01107 26.5658C8.00807 26.9091 8.07388 27.2496 8.20465 27.5673C8.33542 27.8851 8.52854 28.1737 8.77274 28.4165C9.01694 28.6593 9.30732 28.8513 9.62695 28.9813C9.94658 29.1113 10.2891 29.1767 10.6344 29.1737C10.9797 29.1707 11.321 29.0994 11.6383 28.9639C11.9556 28.8284 12.2426 28.6314 12.4825 28.3845L28.0874 12.8713C28.575 12.3864 28.8489 11.7289 28.8489 11.0433C28.8489 10.3577 28.575 9.70019 28.0874 9.21533ZM24.9483 21.3854C23.9136 21.3854 22.9213 21.794 22.1897 22.5214C21.458 23.2487 21.047 24.2351 21.047 25.2637C21.047 26.2923 21.458 27.2788 22.1897 28.0061C22.9213 28.7334 23.9136 29.142 24.9483 29.142C25.9829 29.142 26.9752 28.7334 27.7068 28.0061C28.4385 27.2788 28.8495 26.2923 28.8495 25.2637C28.8495 24.2351 28.4385 23.2487 27.7068 22.5214C26.9752 21.794 25.9829 21.3854 24.9483 21.3854Z" fill="url(#paint0_linear_4_116)"/>
<defs>
<linearGradient id="paint0_linear_4_116" x1="41.9058" y1="18.0834" x2="-3.19627" y2="31.904" gradientUnits="userSpaceOnUse">
<stop stop-color="#004767"/>
<stop offset="0.533286" stop-color="#4DC8FF"/>
<stop offset="1" stop-color="#00B0FF"/>
</linearGradient>
</defs>
</svg>
