<svg width="33" height="43" viewBox="0 0 33 43" fill="none" xmlns="http://www.w3.org/2000/svg">
<path d="M29.4187 0.701172H3.90307C2.14887 0.701172 0.713615 2.25249 0.713615 4.14855V38.6223C0.713615 40.5184 2.14887 42.0697 3.90307 42.0697H29.4187C31.1729 42.0697 32.6082 40.5184 32.6082 38.6223V4.14855C32.6082 2.25249 31.1729 0.701172 29.4187 0.701172ZM10.282 35.1749C10.282 36.123 9.56435 36.8986 8.68725 36.8986H5.4978C4.6207 36.8986 3.90307 36.123 3.90307 35.1749V34.3131C3.90307 33.3651 4.6207 32.5894 5.4978 32.5894H8.68725C9.56435 32.5894 10.282 33.3651 10.282 34.3131V35.1749ZM10.282 28.2802C10.282 29.2282 9.56435 30.0039 8.68725 30.0039H5.4978C4.6207 30.0039 3.90307 29.2282 3.90307 28.2802V27.4183C3.90307 26.4703 4.6207 25.6946 5.4978 25.6946H8.68725C9.56435 25.6946 10.282 26.4703 10.282 27.4183V28.2802ZM10.282 21.3854C10.282 22.3335 9.56435 23.1091 8.68725 23.1091H5.4978C4.6207 23.1091 3.90307 22.3335 3.90307 21.3854V20.5236C3.90307 19.5756 4.6207 18.7999 5.4978 18.7999H8.68725C9.56435 18.7999 10.282 19.5756 10.282 20.5236V21.3854ZM19.8503 35.1749C19.8503 36.123 19.1327 36.8986 18.2556 36.8986H15.0662C14.1891 36.8986 13.4714 36.123 13.4714 35.1749V34.3131C13.4714 33.3651 14.1891 32.5894 15.0662 32.5894H18.2556C19.1327 32.5894 19.8503 33.3651 19.8503 34.3131V35.1749ZM19.8503 28.2802C19.8503 29.2282 19.1327 30.0039 18.2556 30.0039H15.0662C14.1891 30.0039 13.4714 29.2282 13.4714 28.2802V27.4183C13.4714 26.4703 14.1891 25.6946 15.0662 25.6946H18.2556C19.1327 25.6946 19.8503 26.4703 19.8503 27.4183V28.2802ZM19.8503 21.3854C19.8503 22.3335 19.1327 23.1091 18.2556 23.1091H15.0662C14.1891 23.1091 13.4714 22.3335 13.4714 21.3854V20.5236C13.4714 19.5756 14.1891 18.7999 15.0662 18.7999H18.2556C19.1327 18.7999 19.8503 19.5756 19.8503 20.5236V21.3854ZM29.4187 35.1749C29.4187 36.123 28.7011 36.8986 27.824 36.8986H24.6345C23.7574 36.8986 23.0398 36.123 23.0398 35.1749V34.3131C23.0398 33.3651 23.7574 32.5894 24.6345 32.5894H27.824C28.7011 32.5894 29.4187 33.3651 29.4187 34.3131V35.1749ZM29.4187 28.2802C29.4187 29.2282 28.7011 30.0039 27.824 30.0039H24.6345C23.7574 30.0039 23.0398 29.2282 23.0398 28.2802V27.4183C23.0398 26.4703 23.7574 25.6946 24.6345 25.6946H27.824C28.7011 25.6946 29.4187 26.4703 29.4187 27.4183V28.2802ZM29.4187 21.3854C29.4187 22.3335 28.7011 23.1091 27.824 23.1091H24.6345C23.7574 23.1091 23.0398 22.3335 23.0398 21.3854V20.5236C23.0398 19.5756 23.7574 18.7999 24.6345 18.7999H27.824C28.7011 18.7999 29.4187 19.5756 29.4187 20.5236V21.3854ZM29.4187 13.6288C29.4187 14.5769 28.7011 15.3525 27.824 15.3525H5.4978C4.6207 15.3525 3.90307 14.5769 3.90307 13.6288V6.73408C3.90307 5.78605 4.6207 5.01039 5.4978 5.01039H27.824C28.7011 5.01039 29.4187 5.78605 29.4187 6.73408V13.6288Z" fill="url(#paint0_linear_4_112)"/>
<defs>
<linearGradient id="paint0_linear_4_112" x1="37.2103" y1="18.0834" x2="-3.10208" y2="28.9039" gradientUnits="userSpaceOnUse">
<stop stop-color="#004767"/>
<stop offset="0.533286" stop-color="#4DC8FF"/>
<stop offset="1" stop-color="#00B0FF"/>
</linearGradient>
</defs>
</svg>
