<svg width="43" height="43" viewBox="0 0 43 43" fill="none" xmlns="http://www.w3.org/2000/svg">
<path d="M39.2829 19.7943V29.3409H3.82416V3.88337H21.5535V0.701172H3.82416C3.04047 0.701172 2.28888 1.03644 1.73473 1.63321C1.18058 2.22999 0.869263 3.0394 0.869263 3.88337V29.3409C0.869263 30.1849 1.18058 30.9943 1.73473 31.5911C2.28888 32.1878 3.04047 32.5231 3.82416 32.5231H15.6437V38.8875H9.73394V42.0697H33.3731V38.8875H27.4633V32.5231H39.2829C40.0666 32.5231 40.8182 32.1878 41.3723 31.5911C41.9265 30.9943 42.2378 30.1849 42.2378 29.3409V19.7943H39.2829ZM24.5084 38.8875H18.5986V32.5231H24.5084V38.8875Z" fill="url(#paint0_linear_4_113)"/>
<path d="M28.9408 18.2032L21.5535 10.3114L23.9027 7.81337L28.9408 13.1913L39.8886 1.49672L42.2378 4.01065L28.9408 18.2032Z" fill="#00C036"/>
<defs>
<linearGradient id="paint0_linear_4_113" x1="48.2069" y1="18.0834" x2="-1.78734" y2="35.4888" gradientUnits="userSpaceOnUse">
<stop stop-color="#004767"/>
<stop offset="0.533286" stop-color="#4DC8FF"/>
<stop offset="1" stop-color="#00B0FF"/>
</linearGradient>
</defs>
</svg>
