<svg width="43" height="43" viewBox="0 0 43 43" fill="none" xmlns="http://www.w3.org/2000/svg">
<path fill-rule="evenodd" clip-rule="evenodd" d="M26.9519 2.29607C26.9519 1.87308 27.1271 1.46741 27.439 1.16831C27.7509 0.869205 28.1739 0.701172 28.615 0.701172H34.0202C34.4613 0.701172 34.8843 0.869205 35.1962 1.16831C35.5081 1.46741 35.6833 1.87308 35.6833 2.29607V6.78412H40.36C40.8011 6.78412 41.2241 6.95215 41.536 7.25126C41.8479 7.55036 42.0231 7.95603 42.0231 8.37902V13.5624C42.0231 13.9854 41.8479 14.3911 41.536 14.6902C41.2241 14.9893 40.8011 15.1573 40.36 15.1573H35.6833V19.6422C35.6833 20.0652 35.5081 20.4709 35.1962 20.77C34.8843 21.0691 34.4613 21.2371 34.0202 21.2371H28.615C28.1739 21.2371 27.7509 21.0691 27.439 20.77C27.1271 20.4709 26.9519 20.0652 26.9519 19.6422V15.1573H22.2752C21.8341 15.1573 21.4111 14.9893 21.0992 14.6902C20.7873 14.3911 20.6121 13.9854 20.6121 13.5624V8.37902C20.6121 7.95603 20.7873 7.55036 21.0992 7.25126C21.4111 6.95215 21.8341 6.78412 22.2752 6.78412H26.9519V2.29607ZM6.78487 19.7411H0.654602V32.5003L6.73498 38.3312C7.97057 39.5165 9.43756 40.4567 11.0521 41.0982C12.6667 41.7396 14.3973 42.0697 16.1449 42.0697H35.5802C36.9034 42.0697 38.1725 41.5656 39.1082 40.6683C40.0439 39.771 40.5695 38.554 40.5695 37.285C40.5695 36.016 40.0439 34.799 39.1082 33.9017C38.1725 33.0044 36.9034 32.5003 35.5802 32.5003H26.3432C25.9974 33.6185 25.3545 34.6314 24.4775 35.4396C23.6006 36.2477 22.5197 36.8235 21.3408 37.1104C20.1619 37.3973 18.9255 37.3855 17.7528 37.0761C16.5801 36.7667 15.5114 36.1704 14.6514 35.3456L9.82839 30.7204C9.63532 30.5352 9.48217 30.3154 9.37768 30.0735C9.27319 29.8316 9.21941 29.5723 9.21941 29.3105C9.21941 29.0486 9.27319 28.7894 9.37768 28.5475C9.48217 28.3056 9.63532 28.0857 9.82839 27.9006C10.0215 27.7154 10.2507 27.5686 10.5029 27.4684C10.7552 27.3682 11.0255 27.3166 11.2986 27.3166C11.5716 27.3166 11.842 27.3682 12.0943 27.4684C12.3465 27.5686 12.5757 27.7154 12.7688 27.9006L17.5918 32.5258C18.0999 33.0119 18.7799 33.2972 19.497 33.3249C20.2141 33.3527 20.9159 33.1209 21.4631 32.6756C22.0103 32.2304 22.363 31.6041 22.4512 30.921C22.5394 30.238 22.3567 29.5482 21.9392 28.9883L16.1948 23.4795C14.9592 22.2943 13.4922 21.3541 11.8777 20.7126C10.2631 20.0712 8.53253 19.741 6.78487 19.7411Z" fill="url(#paint0_linear_4_117)"/>
<defs>
<linearGradient id="paint0_linear_4_117" x1="47.9922" y1="18.0834" x2="-2.002" y2="35.4888" gradientUnits="userSpaceOnUse">
<stop stop-color="#004767"/>
<stop offset="0.533286" stop-color="#4DC8FF"/>
<stop offset="1" stop-color="#00B0FF"/>
</linearGradient>
</defs>
</svg>
