<svg width="42" height="43" viewBox="0 0 42 43" fill="none" xmlns="http://www.w3.org/2000/svg">
<path d="M30.898 2.64032C30.898 2.12603 31.1157 1.6328 31.5031 1.26914C31.8905 0.905474 32.416 0.701172 32.9639 0.701172H39.85C40.3979 0.701172 40.9234 0.905474 41.3108 1.26914C41.6982 1.6328 41.9159 2.12603 41.9159 2.64032V9.10415C41.9159 9.61845 41.6982 10.1117 41.3108 10.4753C40.9234 10.839 40.3979 11.0433 39.85 11.0433C39.3021 11.0433 38.7767 10.839 38.3893 10.4753C38.0018 10.1117 37.7842 9.61845 37.7842 9.10415V7.32013L25.4717 18.8775C25.0844 19.2406 24.5593 19.4446 24.0119 19.4446C23.4644 19.4446 22.9393 19.2406 22.552 18.8775L15.7485 12.4912L4.12461 23.4021C3.93548 23.5927 3.70741 23.7455 3.454 23.8515C3.20059 23.9574 2.92704 24.0144 2.64966 24.019C2.37227 24.0236 2.09675 23.9757 1.83951 23.8782C1.58228 23.7807 1.34861 23.6355 1.15244 23.4514C0.956267 23.2672 0.801619 23.0479 0.697717 22.8064C0.593816 22.565 0.542791 22.3063 0.547685 22.046C0.552579 21.7856 0.613293 21.5288 0.726204 21.291C0.839115 21.0531 1.00191 20.839 1.20488 20.6615L14.2886 8.3802C14.6759 8.01706 15.201 7.81309 15.7485 7.81309C16.2959 7.81309 16.821 8.01706 17.2083 8.3802L24.0119 14.7665L34.8644 4.57947H32.9639C32.416 4.57947 31.8905 4.37517 31.5031 4.01151C31.1157 3.64785 30.898 3.15462 30.898 2.64032ZM2.66474 31.7276C3.21264 31.7276 3.7381 31.9319 4.12552 32.2955C4.51294 32.6592 4.73059 33.1524 4.73059 33.6667V40.1305C4.73059 40.6448 4.51294 41.1381 4.12552 41.5017C3.7381 41.8654 3.21264 42.0697 2.66474 42.0697C2.11685 42.0697 1.59139 41.8654 1.20397 41.5017C0.816546 41.1381 0.598895 40.6448 0.598895 40.1305V33.6667C0.598895 33.1524 0.816546 32.6592 1.20397 32.2955C1.59139 31.9319 2.11685 31.7276 2.66474 31.7276ZM15.7485 25.9101C15.7485 25.3958 15.5308 24.9026 15.1434 24.5389C14.756 24.1753 14.2305 23.971 13.6826 23.971C13.1347 23.971 12.6093 24.1753 12.2218 24.5389C11.8344 24.9026 11.6168 25.3958 11.6168 25.9101V40.1305C11.6168 40.6448 11.8344 41.1381 12.2218 41.5017C12.6093 41.8654 13.1347 42.0697 13.6826 42.0697C14.2305 42.0697 14.756 41.8654 15.1434 41.5017C15.5308 41.1381 15.7485 40.6448 15.7485 40.1305V25.9101ZM24.7005 29.142C25.2484 29.142 25.7738 29.3463 26.1612 29.71C26.5487 30.0737 26.7663 30.5669 26.7663 31.0812V40.1305C26.7663 40.6448 26.5487 41.1381 26.1612 41.5017C25.7738 41.8654 25.2484 42.0697 24.7005 42.0697C24.1526 42.0697 23.6271 41.8654 23.2397 41.5017C22.8523 41.1381 22.6346 40.6448 22.6346 40.1305V31.0812C22.6346 30.5669 22.8523 30.0737 23.2397 29.71C23.6271 29.3463 24.1526 29.142 24.7005 29.142ZM37.7842 20.739C37.7842 20.2248 37.5665 19.7315 37.1791 19.3679C36.7917 19.0042 36.2662 18.7999 35.7183 18.7999C35.1704 18.7999 34.645 19.0042 34.2576 19.3679C33.8701 19.7315 33.6525 20.2248 33.6525 20.739V40.1305C33.6525 40.6448 33.8701 41.1381 34.2576 41.5017C34.645 41.8654 35.1704 42.0697 35.7183 42.0697C36.2662 42.0697 36.7917 41.8654 37.1791 41.5017C37.5665 41.1381 37.7842 40.6448 37.7842 40.1305V20.739Z" fill="url(#paint0_linear_4_118)"/>
<defs>
<linearGradient id="paint0_linear_4_118" x1="47.885" y1="18.0834" x2="-2.10924" y2="35.4888" gradientUnits="userSpaceOnUse">
<stop stop-color="#004767"/>
<stop offset="0.533286" stop-color="#4DC8FF"/>
<stop offset="1" stop-color="#00B0FF"/>
</linearGradient>
</defs>
</svg>
