<svg width="25" height="24" viewBox="0 0 25 24" fill="none" xmlns="http://www.w3.org/2000/svg">
<path fill-rule="evenodd" clip-rule="evenodd" d="M3.5 11C3.5 7.229 3.5 5.343 4.672 4.172C5.843 3 7.729 3 11.5 3H13.5C17.271 3 19.157 3 20.328 4.172C21.5 5.343 21.5 7.229 21.5 11V13C21.5 16.771 21.5 18.657 20.328 19.828C19.157 21 17.271 21 13.5 21H11.5C7.729 21 5.843 21 4.672 19.828C3.5 18.657 3.5 16.771 3.5 13V11ZM18.5 7.5C18.5 7.89782 18.342 8.27936 18.0607 8.56066C17.7794 8.84196 17.3978 9 17 9C16.6022 9 16.2206 8.84196 15.9393 8.56066C15.658 8.27936 15.5 7.89782 15.5 7.5C15.5 7.10218 15.658 6.72064 15.9393 6.43934C16.2206 6.15804 16.6022 6 17 6C17.3978 6 17.7794 6.15804 18.0607 6.43934C18.342 6.72064 18.5 7.10218 18.5 7.5ZM14.5 13C14.5 13.5304 14.2893 14.0391 13.9142 14.4142C13.5391 14.7893 13.0304 15 12.5 15C11.9696 15 11.4609 14.7893 11.0858 14.4142C10.7107 14.0391 10.5 13.5304 10.5 13C10.5 12.4696 10.7107 11.9609 11.0858 11.5858C11.4609 11.2107 11.9696 11 12.5 11C13.0304 11 13.5391 11.2107 13.9142 11.5858C14.2893 11.9609 14.5 12.4696 14.5 13ZM16.5 13C16.5 14.0609 16.0786 15.0783 15.3284 15.8284C14.5783 16.5786 13.5609 17 12.5 17C11.4391 17 10.4217 16.5786 9.67157 15.8284C8.92143 15.0783 8.5 14.0609 8.5 13C8.5 11.9391 8.92143 10.9217 9.67157 10.1716C10.4217 9.42143 11.4391 9 12.5 9C13.5609 9 14.5783 9.42143 15.3284 10.1716C16.0786 10.9217 16.5 11.9391 16.5 13Z" fill="#D3D3D3"/>
</svg>
