<svg width="36" height="36" viewBox="0 0 36 36" fill="none" xmlns="http://www.w3.org/2000/svg">
<g opacity="0.8">
<path d="M13.5724 20.6781L22.3224 11.9281" stroke="#F8F8F8" stroke-width="2" stroke-linecap="round" stroke-linejoin="round"/>
<path d="M14.3016 13.3865C14.7043 13.3865 15.0307 13.06 15.0307 12.6573C15.0307 12.2546 14.7043 11.9281 14.3016 11.9281C13.8988 11.9281 13.5724 12.2546 13.5724 12.6573C13.5724 13.06 13.8988 13.3865 14.3016 13.3865Z" fill="#F8F8F8" stroke="#F8F8F8" stroke-width="2" stroke-linecap="round" stroke-linejoin="round"/>
<path d="M21.5932 20.6782C21.9959 20.6782 22.3224 20.3517 22.3224 19.949C22.3224 19.5463 21.9959 19.2198 21.5932 19.2198C21.1905 19.2198 20.8641 19.5463 20.8641 19.949C20.8641 20.3517 21.1905 20.6782 21.5932 20.6782Z" fill="#F8F8F8" stroke="#F8F8F8" stroke-width="2" stroke-linecap="round" stroke-linejoin="round"/>
<path d="M7.73907 30.8865V7.55314C7.73907 6.77959 8.04637 6.03773 8.59335 5.49075C9.14033 4.94377 9.88219 4.63647 10.6557 4.63647H25.2391C26.0126 4.63647 26.7545 4.94377 27.3015 5.49075C27.8485 6.03773 28.1557 6.77959 28.1557 7.55314V30.8865L23.7807 27.9698L20.8641 30.8865L17.9474 27.9698L15.0307 30.8865L12.1141 27.9698L7.73907 30.8865Z" stroke="#F8F8F8" stroke-width="2" stroke-linecap="round" stroke-linejoin="round"/>
</g>
</svg>
