<svg width="36" height="35" viewBox="0 0 36 35" fill="none" xmlns="http://www.w3.org/2000/svg">
<g opacity="0.8">
<path d="M18.3834 3.28125C15.5712 3.28125 12.8222 4.11517 10.4839 5.67754C8.14565 7.23992 6.3232 9.46058 5.24702 12.0587C4.17083 14.6569 3.88925 17.5158 4.43789 20.2739C4.98652 23.0321 6.34073 25.5656 8.32925 27.5542C10.3178 29.5427 12.8513 30.8969 15.6095 31.4455C18.3677 31.9942 21.2266 31.7126 23.8247 30.6364C26.4228 29.5602 28.6435 27.7378 30.2059 25.3995C31.7683 23.0613 32.6022 20.3122 32.6022 17.5C32.5982 13.7302 31.0989 10.1159 28.4332 7.45022C25.7675 4.78455 22.1533 3.28523 18.3834 3.28125ZM18.3834 29.5312C16.0039 29.5312 13.6778 28.8256 11.6992 27.5036C9.7207 26.1816 8.17862 24.3026 7.268 22.1042C6.35739 19.9057 6.11913 17.4867 6.58336 15.1528C7.04758 12.819 8.19345 10.6752 9.87605 8.99262C11.5587 7.31002 13.7024 6.16416 16.0362 5.69993C18.3701 5.2357 20.7892 5.47396 22.9876 6.38457C25.186 7.29519 27.065 8.83727 28.387 10.8158C29.7091 12.7943 30.4147 15.1204 30.4147 17.5C30.4111 20.6898 29.1423 23.7479 26.8868 26.0034C24.6313 28.2589 21.5732 29.5276 18.3834 29.5312ZM16.1959 14.2188C16.1959 14.5088 16.0807 14.787 15.8756 14.9921C15.6705 15.1973 15.3923 15.3125 15.1022 15.3125H14.0084V20.7812C14.0084 21.0713 13.8932 21.3495 13.6881 21.5546C13.483 21.7598 13.2048 21.875 12.9147 21.875C12.6246 21.875 12.3464 21.7598 12.1413 21.5546C11.9362 21.3495 11.8209 21.0713 11.8209 20.7812V15.3125H10.7272C10.4371 15.3125 10.1589 15.1973 9.95378 14.9921C9.74866 14.787 9.63343 14.5088 9.63343 14.2188C9.63343 13.9287 9.74866 13.6505 9.95378 13.4454C10.1589 13.2402 10.4371 13.125 10.7272 13.125H15.1022C15.3923 13.125 15.6705 13.2402 15.8756 13.4454C16.0807 13.6505 16.1959 13.9287 16.1959 14.2188ZM27.1334 14.2188V20.7812C27.1334 21.0713 27.0182 21.3495 26.8131 21.5546C26.608 21.7598 26.3298 21.875 26.0397 21.875C25.7496 21.875 25.4714 21.7598 25.2663 21.5546C25.0612 21.3495 24.9459 21.0713 24.9459 20.7812V17.1295L23.0319 19.317C22.9292 19.4334 22.803 19.5266 22.6616 19.5904C22.5201 19.6543 22.3667 19.6873 22.2116 19.6873C22.0564 19.6873 21.903 19.6543 21.7615 19.5904C21.6201 19.5266 21.4939 19.4334 21.3912 19.317L19.4772 17.1295V20.7812C19.4772 21.0713 19.3619 21.3495 19.1568 21.5546C18.9517 21.7598 18.6735 21.875 18.3834 21.875C18.0933 21.875 17.8151 21.7598 17.61 21.5546C17.4049 21.3495 17.2897 21.0713 17.2897 20.7812V14.2188C17.2903 13.9968 17.3584 13.7804 17.4849 13.598C17.6114 13.4157 17.7904 13.2762 17.9981 13.1981C18.2058 13.1199 18.4323 13.1067 18.6477 13.1603C18.863 13.214 19.057 13.3318 19.2037 13.4982L22.2116 16.9326L25.2194 13.4982C25.3661 13.3318 25.5601 13.214 25.7754 13.1603C25.9908 13.1067 26.2173 13.1199 26.425 13.1981C26.6327 13.2762 26.8117 13.4157 26.9382 13.598C27.0648 13.7804 27.1328 13.9968 27.1334 14.2188Z" fill="#F8F8F8"/>
</g>
</svg>
