<svg width="26" height="26" viewBox="0 0 26 26" fill="none" xmlns="http://www.w3.org/2000/svg">
<g opacity="0.8" clip-path="url(#clip0_869_1248)">
<path d="M9.56582 12.7921C11.0727 12.7921 12.5179 12.1935 13.5835 11.128C14.649 10.0624 15.2476 8.61723 15.2476 7.11032C15.2476 5.6034 14.649 4.15821 13.5835 3.09266C12.5179 2.02712 11.0727 1.4285 9.56582 1.4285C8.05891 1.4285 6.61372 2.02712 5.54817 3.09266C4.48262 4.15821 3.884 5.6034 3.884 7.11032C3.884 8.61723 4.48262 10.0624 5.54817 11.128C6.61372 12.1935 8.05891 12.7921 9.56582 12.7921ZM9.56582 12.7921C11.8533 12.7921 13.8522 13.6558 15.2738 15.091C16.1168 15.9454 16.7473 16.9858 17.1147 18.1285M9.56582 12.7921C5.02037 12.7921 1.61127 16.2012 1.61127 20.7467V26.4285H12.9749M14.1113 21.683L18.8726 25.2921L26.6113 15.0649" stroke="#F8F8F8" stroke-width="2"/>
</g>
<defs>
<clipPath id="clip0_869_1248">
<rect width="25" height="25" fill="white" transform="translate(0.569611 0.386841)"/>
</clipPath>
</defs>
</svg>
