<svg width="27" height="28" viewBox="0 0 27 28" fill="none" xmlns="http://www.w3.org/2000/svg">
<path d="M2.25854 9.76147C2.25854 5.26147 3.38355 4.13647 7.88355 4.13647H19.1335C23.6335 4.13647 24.7585 5.26147 24.7585 9.76147V18.7615C24.7585 23.2615 23.6335 24.3865 19.1335 24.3865H7.88355C3.38355 24.3865 2.25854 23.2615 2.25854 18.7615V14.7115" stroke="white" stroke-width="1.5" stroke-linecap="round" stroke-linejoin="round"/>
<path d="M15.7585 9.76141H21.3835" stroke="white" stroke-width="1.5" stroke-linecap="round" stroke-linejoin="round"/>
<path d="M16.8835 14.2615H21.3835" stroke="white" stroke-width="1.5" stroke-linecap="round" stroke-linejoin="round"/>
<path d="M19.1335 18.7615H21.3835" stroke="white" stroke-width="1.5" stroke-linecap="round" stroke-linejoin="round"/>
<path d="M9.57101 13.4627C10.6956 13.4627 11.6073 12.551 11.6073 11.4264C11.6073 10.3019 10.6956 9.3902 9.57101 9.3902C8.44642 9.3902 7.53476 10.3019 7.53476 11.4264C7.53476 12.551 8.44642 13.4627 9.57101 13.4627Z" stroke="white" stroke-width="1.5" stroke-linecap="round" stroke-linejoin="round"/>
<path d="M13.5085 19.1328C13.351 17.5016 12.0573 16.2191 10.426 16.0728C9.86354 16.0166 9.28979 16.0166 8.71604 16.0728C7.08479 16.2303 5.79104 17.5016 5.63354 19.1328" stroke="white" stroke-width="1.5" stroke-linecap="round" stroke-linejoin="round"/>
</svg>
