<svg width="36" height="36" viewBox="0 0 36 36" fill="none" xmlns="http://www.w3.org/2000/svg">
<g opacity="0.8">
<path d="M5.05017 29.5669V28.1086H17.446V11.9794C16.7577 11.855 16.15 11.5429 15.6231 11.0432C15.0961 10.5435 14.7607 9.91249 14.6168 9.15027H9.59288L13.8002 19.6678C13.7438 20.64 13.2922 21.4669 12.4454 22.1484C11.5986 22.8309 10.5918 23.1721 9.42517 23.1721C8.2585 23.1721 7.25177 22.8309 6.40496 22.1484C5.55816 21.4669 5.10656 20.64 5.05017 19.6678L9.25746 9.15027H6.5085V7.69194H14.6168C14.7773 6.87819 15.1827 6.18888 15.8331 5.62402C16.4835 5.05916 17.2642 4.77624 18.1752 4.77527C19.0861 4.77527 19.8668 5.05819 20.5173 5.62402C21.1677 6.18888 21.5731 6.87819 21.7335 7.69194H29.8418V9.15027H27.0929L31.3002 19.6678C31.2438 20.64 30.7922 21.4669 29.9454 22.1484C29.0986 22.8309 28.0918 23.1721 26.9252 23.1721C25.7585 23.1721 24.7518 22.8309 23.905 22.1484C23.0582 21.4669 22.6066 20.64 22.5502 19.6678L26.7575 9.15027H21.7335C21.5896 9.91346 21.2542 10.5444 20.7273 11.0432C20.2003 11.5419 19.5927 11.854 18.9043 11.9794V28.1086H31.3002V29.5669H5.05017ZM23.9939 19.5263H29.8564L26.9252 12.2011L23.9939 19.5263ZM6.49392 19.5263H12.3564L9.42517 12.2011L6.49392 19.5263ZM18.1752 10.6086C18.775 10.6086 19.2898 10.3942 19.7195 9.96548C20.1483 9.53575 20.3627 9.02096 20.3627 8.4211C20.3627 7.82124 20.1483 7.30645 19.7195 6.87673C19.2898 6.44798 18.775 6.2336 18.1752 6.2336C17.5753 6.2336 17.0605 6.44798 16.6308 6.87673C16.202 7.30645 15.9877 7.82124 15.9877 8.4211C15.9877 9.02096 16.202 9.53575 16.6308 9.96548C17.0605 10.3942 17.5753 10.6086 18.1752 10.6086Z" fill="#F8F8F8"/>
</g>
</svg>
