<svg width="28" height="29" viewBox="0 0 28 29" fill="none" xmlns="http://www.w3.org/2000/svg">
<path d="M19.2585 7.14429H8.75851C8.58447 7.14429 8.41755 7.21343 8.29448 7.3365C8.17141 7.45957 8.10226 7.62649 8.10226 7.80054V13.0505C8.10226 13.2246 8.17141 13.3915 8.29448 13.5146C8.41755 13.6376 8.58447 13.7068 8.75851 13.7068H19.2585C19.4326 13.7068 19.5995 13.6376 19.7226 13.5146C19.8456 13.3915 19.9148 13.2246 19.9148 13.0505V7.80054C19.9148 7.62649 19.8456 7.45957 19.7226 7.3365C19.5995 7.21343 19.4326 7.14429 19.2585 7.14429ZM18.6023 12.3943H9.41476V8.45679H18.6023V12.3943ZM21.8835 3.64429H6.13351C5.7274 3.64429 5.33792 3.80561 5.05076 4.09278C4.76359 4.37995 4.60226 4.76942 4.60226 5.17554V24.4255C4.60226 24.8316 4.76359 25.2211 5.05076 25.5083C5.33792 25.7955 5.7274 25.9568 6.13351 25.9568H21.8835C22.2896 25.9568 22.6791 25.7955 22.9663 25.5083C23.2534 25.2211 23.4148 24.8316 23.4148 24.4255V5.17554C23.4148 4.76942 23.2534 4.37995 22.9663 4.09278C22.6791 3.80561 22.2896 3.64429 21.8835 3.64429ZM22.1023 24.4255C22.1023 24.4836 22.0792 24.5392 22.0382 24.5802C21.9972 24.6212 21.9415 24.6443 21.8835 24.6443H6.13351C6.0755 24.6443 6.01986 24.6212 5.97883 24.5802C5.93781 24.5392 5.91476 24.4836 5.91476 24.4255V5.17554C5.91476 5.11752 5.93781 5.06188 5.97883 5.02086C6.01986 4.97983 6.0755 4.95679 6.13351 4.95679H21.8835C21.9415 4.95679 21.9972 4.97983 22.0382 5.02086C22.0792 5.06188 22.1023 5.11752 22.1023 5.17554V24.4255ZM10.7273 16.988C10.7273 17.2044 10.6631 17.4158 10.5429 17.5957C10.4228 17.7756 10.2519 17.9157 10.0521 17.9985C9.85222 18.0813 9.6323 18.103 9.42013 18.0608C9.20797 18.0186 9.01308 17.9144 8.86012 17.7614C8.70715 17.6085 8.60298 17.4136 8.56078 17.2014C8.51858 16.9893 8.54024 16.7693 8.62302 16.5695C8.7058 16.3696 8.84599 16.1988 9.02586 16.0786C9.20573 15.9584 9.41719 15.8943 9.63351 15.8943C9.92359 15.8943 10.2018 16.0095 10.4069 16.2146C10.612 16.4198 10.7273 16.698 10.7273 16.988ZM15.1023 16.988C15.1023 17.2044 15.0381 17.4158 14.9179 17.5957C14.7978 17.7756 14.6269 17.9157 14.4271 17.9985C14.2272 18.0813 14.0073 18.103 13.7951 18.0608C13.583 18.0186 13.3881 17.9144 13.2351 17.7614C13.0822 17.6085 12.978 17.4136 12.9358 17.2014C12.8936 16.9893 12.9152 16.7693 12.998 16.5695C13.0808 16.3696 13.221 16.1988 13.4009 16.0786C13.5807 15.9584 13.7922 15.8943 14.0085 15.8943C14.2986 15.8943 14.5768 16.0095 14.7819 16.2146C14.987 16.4198 15.1023 16.698 15.1023 16.988ZM19.4773 16.988C19.4773 17.2044 19.4131 17.4158 19.2929 17.5957C19.1728 17.7756 19.0019 17.9157 18.8021 17.9985C18.6022 18.0813 18.3823 18.103 18.1701 18.0608C17.958 18.0186 17.7631 17.9144 17.6101 17.7614C17.4572 17.6085 17.353 17.4136 17.3108 17.2014C17.2686 16.9893 17.2902 16.7693 17.373 16.5695C17.4558 16.3696 17.596 16.1988 17.7759 16.0786C17.9557 15.9584 18.1672 15.8943 18.3835 15.8943C18.6736 15.8943 18.9518 16.0095 19.1569 16.2146C19.362 16.4198 19.4773 16.698 19.4773 16.988ZM10.7273 21.363C10.7273 21.5794 10.6631 21.7908 10.5429 21.9707C10.4228 22.1506 10.2519 22.2907 10.0521 22.3735C9.85222 22.4563 9.6323 22.478 9.42013 22.4358C9.20797 22.3936 9.01308 22.2894 8.86012 22.1364C8.70715 21.9835 8.60298 21.7886 8.56078 21.5764C8.51858 21.3643 8.54024 21.1443 8.62302 20.9445C8.7058 20.7446 8.84599 20.5738 9.02586 20.4536C9.20573 20.3334 9.41719 20.2693 9.63351 20.2693C9.92359 20.2693 10.2018 20.3845 10.4069 20.5896C10.612 20.7948 10.7273 21.073 10.7273 21.363ZM15.1023 21.363C15.1023 21.5794 15.0381 21.7908 14.9179 21.9707C14.7978 22.1506 14.6269 22.2907 14.4271 22.3735C14.2272 22.4563 14.0073 22.478 13.7951 22.4358C13.583 22.3936 13.3881 22.2894 13.2351 22.1364C13.0822 21.9835 12.978 21.7886 12.9358 21.5764C12.8936 21.3643 12.9152 21.1443 12.998 20.9445C13.0808 20.7446 13.221 20.5738 13.4009 20.4536C13.5807 20.3334 13.7922 20.2693 14.0085 20.2693C14.2986 20.2693 14.5768 20.3845 14.7819 20.5896C14.987 20.7948 15.1023 21.073 15.1023 21.363ZM19.4773 21.363C19.4773 21.5794 19.4131 21.7908 19.2929 21.9707C19.1728 22.1506 19.0019 22.2907 18.8021 22.3735C18.6022 22.4563 18.3823 22.478 18.1701 22.4358C17.958 22.3936 17.7631 22.2894 17.6101 22.1364C17.4572 21.9835 17.353 21.7886 17.3108 21.5764C17.2686 21.3643 17.2902 21.1443 17.373 20.9445C17.4558 20.7446 17.596 20.5738 17.7759 20.4536C17.9557 20.3334 18.1672 20.2693 18.3835 20.2693C18.6736 20.2693 18.9518 20.3845 19.1569 20.5896C19.362 20.7948 19.4773 21.073 19.4773 21.363Z" fill="#F8F8F8" fill-opacity="0.8"/>
</svg>
