<svg width="31" height="31" viewBox="0 0 31 31" fill="none" xmlns="http://www.w3.org/2000/svg">
<g opacity="0.8" clip-path="url(#clip0_890_1095)">
<path d="M2.5035 3.02763C2.5035 2.722 2.56037 2.50685 2.60357 2.39481C2.96229 2.26028 4.24782 2.07978 5.57752 3.40638L12.3556 10.1737L13.1965 10.125C14.9563 10.0223 18.1101 9.832 20.8136 9.66794C23.22 9.5231 25.4925 9.38572 25.6859 9.37685C25.8188 9.37216 25.8503 9.37025 25.9996 9.494C26.3362 9.77057 26.9067 10.2867 27.3795 10.7217C25.5592 11.3962 21.7142 12.8137 19.5619 13.5965L16.7926 14.6024L18.8769 16.6832L22.5622 20.5096L23.0951 21.0426L23.8487 21.059C24.4502 21.0717 25.5296 21.0688 26.4813 21.0674C27.1443 21.0656 27.7467 21.0637 28.0787 21.0684C28.0942 21.0768 28.1125 20.9404 28.1345 20.953C28.0035 21.0346 27.8622 21.1223 27.7152 21.2151C26.4827 21.9866 24.7779 23.0544 24.2459 23.3802L23.8562 23.6184L23.6195 24.0093C22.7594 25.431 21.7663 27.006 21.1461 27.9669C21.1268 27.9337 21.2287 27.9065 21.217 27.8845V27.8221C21.217 27.5198 21.2235 27.0201 21.2315 26.4599C21.2414 25.7273 21.2536 24.8962 21.2536 24.2601C21.2536 24.0163 21.2517 23.7998 21.248 23.6254L21.2306 22.8731L20.6977 22.341L16.8912 18.6571L14.815 16.5834L13.8008 19.3354C13.0388 21.4035 11.5569 25.3649 10.8597 27.2179C10.4211 26.7426 9.90043 26.1698 9.62338 25.8356C9.54637 25.7423 9.50696 25.6696 9.50696 25.6195L9.50884 25.5534C9.5187 25.3467 9.68679 22.7793 9.84925 20.2973C10.0216 17.6625 10.2159 14.6887 10.3235 12.998L10.3765 12.1528L3.59656 5.38453C2.64577 4.43391 2.5035 3.50016 2.5035 3.02763ZM0.625479 3.0276C0.625479 4.13525 1.05175 5.49504 2.26876 6.70957L8.44868 12.8797C8.22847 16.355 7.63874 25.2557 7.63264 25.4764C7.63022 25.5241 7.62896 25.5717 7.62885 25.6194C7.62885 25.9199 7.68661 26.4388 8.17538 27.0294C8.74964 27.7227 10.1113 29.1683 10.1113 29.1683C10.4615 29.5171 10.8954 29.6938 11.3034 29.6516C11.5499 29.6258 11.9992 29.4922 12.2359 28.888C12.3801 28.521 14.569 22.6799 15.563 19.9827L19.3694 23.6666C19.3732 23.8297 19.3751 24.0318 19.3751 24.26C19.3751 25.3832 19.3384 27.1246 19.3384 27.8226C19.3384 27.9149 19.3384 27.989 19.3403 28.0415C19.3469 28.2539 19.2422 28.6935 20.2132 29.8532L20.2902 29.9357C20.6386 30.2835 20.986 30.3651 21.2156 30.3726C21.4523 30.3801 21.7931 30.3168 22.0673 29.9751C22.2335 29.7698 23.9215 27.1378 25.2273 24.9792C26.0729 24.4617 29.8638 22.0804 30.0695 21.9562C30.3766 21.7748 30.5517 21.4781 30.563 21.1232V21.0937C30.563 20.7487 30.3916 20.3943 30.054 20.0474C28.9041 19.0659 28.428 19.2013 28.228 19.1971C27.6007 19.1817 24.9432 19.2079 23.8896 19.1854L20.2038 15.3595C22.8942 14.3817 28.6848 12.2442 29.0534 12.1012C29.6586 11.8631 29.7915 11.4145 29.8164 11.1684C29.8211 11.1281 29.823 11.0868 29.823 11.0465C29.823 10.6766 29.6488 10.2932 29.3342 9.97916C29.3342 9.97916 27.8937 8.624 27.1927 8.04838C26.4922 7.47182 25.894 7.49429 25.6118 7.50554C25.4165 7.51023 16.5495 8.05307 13.0867 8.25463L6.9049 2.08307C4.71312 -0.104151 2.07206 0.243662 1.25978 1.05601C0.898715 1.4146 0.625509 2.14069 0.625479 3.0276Z" fill="#F8F8F8"/>
</g>
<defs>
<clipPath id="clip0_890_1095">
<rect width="30" height="30" fill="white" transform="matrix(0 -1 1 0 0.569611 30.4003)"/>
</clipPath>
</defs>
</svg>
