<svg width="31" height="31" viewBox="0 0 31 31" fill="none" xmlns="http://www.w3.org/2000/svg">
<g opacity="0.8" clip-path="url(#clip0_890_1137)">
<path d="M13.5727 0.800537L24.4172 5.72241H25.8774C26.0949 5.72241 26.3036 5.80884 26.4574 5.96267C26.6113 6.11651 26.6977 6.32516 26.6977 6.54272V9.82397C26.6977 10.0415 26.6113 10.2502 26.4574 10.404C26.3036 10.5579 26.0949 10.6443 25.8774 10.6443H25.0571V22.1287C25.2403 22.1288 25.4181 22.1903 25.5623 22.3032C25.7065 22.4162 25.8088 22.5742 25.8528 22.7521L26.6731 26.0333C26.7036 26.1542 26.7061 26.2804 26.6803 26.4024C26.6546 26.5243 26.6013 26.6387 26.5245 26.7369C26.4477 26.8351 26.3494 26.9144 26.2373 26.9687C26.1251 27.0231 26.002 27.0511 25.8774 27.0505H1.26799C1.14335 27.0511 1.02024 27.0231 0.908083 26.9687C0.795924 26.9144 0.697687 26.8351 0.620893 26.7369C0.544099 26.6387 0.490783 26.5243 0.465025 26.4024C0.439267 26.2804 0.441751 26.1542 0.472286 26.0333L1.2926 22.7521C1.33657 22.5742 1.4388 22.4162 1.58301 22.3032C1.72722 22.1903 1.9051 22.1288 2.0883 22.1287V10.6443H1.26799C1.05043 10.6443 0.841779 10.5579 0.687941 10.404C0.534102 10.2502 0.447677 10.0415 0.447677 9.82397V6.54272C0.447677 6.32516 0.534102 6.11651 0.687941 5.96267C0.841779 5.80884 1.05043 5.72241 1.26799 5.72241H2.72815L13.5727 0.800537ZM6.64432 5.72241H20.5027L13.5727 2.44116L6.64432 5.72241ZM3.72893 10.6443V22.1287H5.36955V10.6443H3.72893ZM7.01018 10.6443V22.1287H11.1117V10.6443H7.01018ZM12.7524 10.6443V22.1287H14.393V10.6443H12.7524ZM16.0336 10.6443V22.1287H20.1352V10.6443H16.0336ZM21.7758 10.6443V22.1287H23.4164V10.6443H21.7758ZM25.0571 9.00366V7.36304H2.0883V9.00366H25.0571ZM24.4172 23.7693H2.72815L2.31799 25.4099H24.8274L24.4172 23.7693Z" fill="#F8F8F8"/>
</g>
<defs>
<clipPath id="clip0_890_1137">
<rect width="30" height="30" fill="white" transform="translate(0.447388 0.800537)"/>
</clipPath>
</defs>
</svg>
