<svg width="28" height="28" viewBox="0 0 28 28" fill="none" xmlns="http://www.w3.org/2000/svg">
<g clip-path="url(#clip0_890_1125)">
<path d="M0.569611 26.738C1.46472 26.738 2.32316 26.3825 2.9561 25.7495C3.58903 25.1166 3.94461 24.2581 3.94461 23.363C3.94461 24.2581 4.30019 25.1166 4.93313 25.7495C5.56606 26.3825 6.4245 26.738 7.31961 26.738C8.21472 26.738 9.07316 26.3825 9.7061 25.7495C10.339 25.1166 10.6946 24.2581 10.6946 23.363C10.6946 24.2581 11.0502 25.1166 11.6831 25.7495C12.3161 26.3825 13.1745 26.738 14.0696 26.738C14.9647 26.738 15.8232 26.3825 16.4561 25.7495C17.089 25.1166 17.4446 24.2581 17.4446 23.363C17.4446 24.2581 17.8002 25.1166 18.4331 25.7495C19.0661 26.3825 19.9245 26.738 20.8196 26.738C21.7147 26.738 22.5732 26.3825 23.2061 25.7495C23.839 25.1166 24.1946 24.2581 24.1946 23.363C24.1946 24.2581 24.5502 25.1166 25.1831 25.7495C25.8161 26.3825 26.6745 26.738 27.5696 26.738M6.75711 11.8172V4.23804H21.3821V11.8172M14.0696 0.300537V4.23804M6.75711 21.6755C6.75711 21.4798 6.62211 20.8093 6.44324 20.015C5.93924 17.7605 4.93349 15.6523 3.57449 13.7848L3.38211 13.5193V13.238L12.5149 9.39279C12.9757 9.19865 13.369 8.87286 13.6456 8.45622C13.9222 8.03958 14.0697 7.55061 14.0696 7.05054M14.0696 7.05054C14.0696 8.07316 14.6827 8.99679 15.6255 9.39279L24.7571 13.238V13.5193L24.5636 13.7848C23.2057 15.6523 22.2 17.7605 21.6949 20.015C21.5182 20.8082 21.3821 21.4798 21.3821 21.6755M14.0696 7.05054V21.6755" stroke="#F8F8F8"/>
</g>
<defs>
<clipPath id="clip0_890_1125">
<rect width="27" height="27" fill="white" transform="translate(0.569611 0.300537)"/>
</clipPath>
</defs>
</svg>
