<svg width="29" height="29" viewBox="0 0 29 29" fill="none" xmlns="http://www.w3.org/2000/svg">
<g opacity="0.8" clip-path="url(#clip0_890_1143)">
<path d="M13.7397 18.3005H8.48975C7.79355 18.3005 7.12587 18.5771 6.63359 19.0694C6.14131 19.5617 5.86475 20.2293 5.86475 20.9255V22.6755H7.61475V20.9255C7.61475 20.6935 7.70693 20.4709 7.87103 20.3068C8.03512 20.1427 8.25768 20.0505 8.48975 20.0505H13.7397C13.9718 20.0505 14.1944 20.1427 14.3585 20.3068C14.5226 20.4709 14.6147 20.6935 14.6147 20.9255V22.6755H16.3647V20.9255C16.3647 20.2293 16.0882 19.5617 15.5959 19.0694C15.1036 18.5771 14.4359 18.3005 13.7397 18.3005ZM11.1147 17.4255C11.807 17.4255 12.4837 17.2203 13.0592 16.8357C13.6348 16.4511 14.0834 15.9045 14.3483 15.2649C14.6132 14.6254 14.6825 13.9217 14.5475 13.2427C14.4124 12.5638 14.0791 11.9401 13.5896 11.4507C13.1001 10.9612 12.4765 10.6278 11.7976 10.4928C11.1186 10.3577 10.4149 10.4271 9.77535 10.692C9.13581 10.9569 8.58919 11.4055 8.2046 11.981C7.82002 12.5566 7.61475 13.2333 7.61475 13.9255C7.61475 14.8538 7.98349 15.744 8.63987 16.4004C9.29625 17.0568 10.1865 17.4255 11.1147 17.4255ZM11.1147 12.1755C11.4609 12.1755 11.7992 12.2782 12.087 12.4705C12.3748 12.6628 12.5991 12.9361 12.7315 13.2558C12.864 13.5756 12.8986 13.9275 12.8311 14.2669C12.7636 14.6064 12.5969 14.9182 12.3522 15.163C12.1074 15.4077 11.7956 15.5744 11.4562 15.6419C11.1167 15.7094 10.7648 15.6748 10.4451 15.5423C10.1253 15.4099 9.85197 15.1856 9.65967 14.8978C9.46738 14.61 9.36475 14.2717 9.36475 13.9255C9.36475 13.4614 9.54912 13.0163 9.87731 12.6881C10.2055 12.3599 10.6506 12.1755 11.1147 12.1755Z" fill="#F8F8F8"/>
<path d="M25.1147 17.4255V25.3005H4.11475V7.80054H14.6147V6.05054H4.11475C3.65062 6.05054 3.2055 6.23491 2.87731 6.5631C2.54912 6.89129 2.36475 7.33641 2.36475 7.80054V25.3005C2.36475 25.7647 2.54912 26.2098 2.87731 26.538C3.2055 26.8662 3.65062 27.0505 4.11475 27.0505H25.1147C25.5789 27.0505 26.024 26.8662 26.3522 26.538C26.6804 26.2098 26.8647 25.7647 26.8647 25.3005V17.4255H25.1147Z" fill="#F8F8F8"/>
<path d="M18.1147 17.4255H23.3647V19.1755H18.1147V17.4255ZM19.8647 20.9255H23.3647V22.6755H19.8647V20.9255ZM28.6147 9.55054V7.80054H26.7764C26.6635 7.25281 26.446 6.73199 26.1359 6.26666L27.4396 4.96291L26.2024 3.72566L24.8986 5.02941C24.4333 4.71923 23.9125 4.50176 23.3647 4.38891V2.55054H21.6147V4.38891C21.067 4.50176 20.5462 4.71923 20.0809 5.02941L18.7771 3.72566L17.5399 4.96291L18.8436 6.26666C18.5334 6.73199 18.316 7.25281 18.2031 7.80054H16.3647V9.55054H18.2031C18.316 10.0983 18.5334 10.6191 18.8436 11.0844L17.5399 12.3882L18.7771 13.6254L20.0809 12.3217C20.5462 12.6318 21.067 12.8493 21.6147 12.9622V14.8005H23.3647V12.9622C23.9125 12.8493 24.4333 12.6318 24.8986 12.3217L26.2024 13.6254L27.4396 12.3882L26.1359 11.0844C26.446 10.6191 26.6635 10.0983 26.7764 9.55054H28.6147ZM22.4897 11.3005C21.9706 11.3005 21.4631 11.1466 21.0314 10.8581C20.5997 10.5697 20.2632 10.1597 20.0646 9.68008C19.8659 9.20043 19.8139 8.67263 19.9152 8.16342C20.0165 7.65422 20.2665 7.18649 20.6336 6.81938C21.0007 6.45227 21.4684 6.20226 21.9776 6.10098C22.4868 5.99969 23.0146 6.05167 23.4943 6.25035C23.9739 6.44903 24.3839 6.78549 24.6724 7.21716C24.9608 7.64884 25.1147 8.15636 25.1147 8.67554C25.1141 9.37152 24.8373 10.0388 24.3451 10.5309C23.853 11.0231 23.1857 11.2998 22.4897 11.3005Z" fill="#F8F8F8"/>
</g>
<defs>
<clipPath id="clip0_890_1143">
<rect width="28" height="28" fill="white" transform="translate(0.614746 0.800537)"/>
</clipPath>
</defs>
</svg>
