<svg width="20" height="20" viewBox="0 0 20 20" fill="none" xmlns="http://www.w3.org/2000/svg">
<path d="M5.69023 5.69031C6.9918 4.38873 6.9918 2.27776 5.69023 0.976185C4.38867 -0.325395 2.27773 -0.325395 0.976172 0.976185C-0.325391 2.27776 -0.325391 4.38873 0.976172 5.69031C2.27826 6.99241 4.38867 6.99241 5.69023 5.69031ZM19.0236 14.3097C17.722 13.0081 15.6111 13.0081 14.3095 14.3097C13.0079 15.6113 13.0079 17.7222 14.3095 19.0238C15.6111 20.3254 17.722 20.3254 19.0236 19.0238C20.3257 17.7222 20.3257 15.6118 19.0236 14.3097ZM18.9225 2.25589L17.7444 1.07775C17.0934 0.426699 16.0382 0.426699 15.3876 1.07775L1.07773 15.3878C0.426693 16.0389 0.426693 17.0941 1.07773 17.7446L2.25586 18.9228C2.9069 19.5738 3.96211 19.5738 4.61263 18.9228L18.9225 4.61269C19.5736 3.96216 19.5736 2.90694 18.9225 2.25589Z" fill="#1495CF"/>
</svg>
