<svg width="24" height="24" viewBox="0 0 24 24" fill="none" xmlns="http://www.w3.org/2000/svg">
<path d="M12 16.23C12.142 16.23 12.261 16.1823 12.357 16.087C12.4523 15.991 12.5 15.8723 12.5 15.731V11.077C12.5 10.935 12.452 10.8163 12.356 10.721C12.26 10.625 12.141 10.577 11.999 10.577C11.857 10.577 11.7383 10.625 11.643 10.721C11.5477 10.8163 11.5 10.935 11.5 11.077V15.731C11.5 15.8723 11.548 15.991 11.644 16.087C11.74 16.183 11.859 16.231 12.001 16.231M12 8.99999C12.1747 8.99999 12.3207 8.94099 12.438 8.82299C12.556 8.70499 12.615 8.55899 12.615 8.38499C12.615 8.21032 12.556 8.06399 12.438 7.94599C12.3207 7.82799 12.1747 7.76899 12 7.76899C11.8253 7.76899 11.6793 7.82799 11.562 7.94599C11.444 8.06399 11.385 8.21032 11.385 8.38499C11.385 8.55899 11.444 8.70499 11.562 8.82299C11.6793 8.94099 11.8253 8.99999 12 8.99999ZM12 20.842C11.9087 20.842 11.813 20.8337 11.713 20.817C11.613 20.8003 11.5197 20.7753 11.433 20.742C9.46433 19.992 7.9 18.72 6.74 16.926C5.58 15.132 5 13.19 5 11.1V6.81699C5 6.47432 5.09767 6.16565 5.293 5.89099C5.48833 5.61632 5.74067 5.41732 6.05 5.29399L11.435 3.29399C11.6297 3.22332 11.818 3.18799 12 3.18799C12.182 3.18799 12.3703 3.22332 12.565 3.29399L17.95 5.29399C18.2593 5.41732 18.5117 5.61632 18.707 5.89099C18.9023 6.16565 19 6.47432 19 6.81699V11.1C19 13.19 18.42 15.132 17.26 16.926C16.1 18.72 14.536 19.992 12.568 20.742C12.4807 20.7753 12.387 20.8003 12.287 20.817C12.187 20.8337 12.0913 20.842 12 20.842ZM12 19.9C13.7333 19.35 15.1667 18.25 16.3 16.6C17.4333 14.95 18 13.1167 18 11.1V6.79799C18 6.66999 17.9647 6.55466 17.894 6.45199C17.8233 6.34932 17.724 6.27266 17.596 6.22199L12.212 4.22199C12.1473 4.19532 12.0767 4.18199 12 4.18199C11.9233 4.18199 11.8527 4.19532 11.788 4.22199L6.404 6.22199C6.276 6.27266 6.17667 6.34932 6.106 6.45199C6.03533 6.55466 6 6.66999 6 6.79799V11.1C6 13.1167 6.56667 14.95 7.7 16.6C8.83333 18.25 10.2667 19.35 12 19.9Z" fill="#777777"/>
</svg>
