<svg width="24" height="24" viewBox="0 0 24 24" fill="none" xmlns="http://www.w3.org/2000/svg">
<path d="M6.42895 2.41283C6.55502 2.26235 6.61707 2.06845 6.60178 1.87273C6.58649 1.67702 6.49508 1.49511 6.34716 1.36604C6.19924 1.23697 6.00662 1.17105 5.81064 1.18241C5.61466 1.19378 5.43095 1.28153 5.29895 1.42683L4.00695 2.90683C3.27433 3.74639 2.86018 4.8168 2.83695 5.93083L2.77995 8.64983C2.77791 8.74832 2.79529 8.84625 2.8311 8.93802C2.86691 9.02979 2.92045 9.11361 2.98866 9.1847C3.05686 9.25578 3.1384 9.31273 3.22861 9.3523C3.31883 9.39188 3.41595 9.41329 3.51445 9.41533C3.61294 9.41736 3.71086 9.39998 3.80264 9.36417C3.89441 9.32836 3.97823 9.27482 4.04932 9.20662C4.1204 9.13841 4.17735 9.05687 4.21692 8.96666C4.25649 8.87644 4.27791 8.77932 4.27995 8.68083L4.33595 5.96283C4.35199 5.20055 4.63552 4.46819 5.13695 3.89383L6.42895 2.41283Z" fill="#777777"/>
<path fill-rule="evenodd" clip-rule="evenodd" d="M6.23695 7.7C6.30411 6.63014 6.77647 5.62608 7.55787 4.89224C8.33928 4.15839 9.37098 3.74993 10.4429 3.75H10.9999V3C10.9999 2.73478 11.1053 2.48043 11.2928 2.29289C11.4804 2.10536 11.7347 2 11.9999 2C12.2652 2 12.5195 2.10536 12.7071 2.29289C12.8946 2.48043 12.9999 2.73478 12.9999 3V3.75H13.5569C14.6289 3.74993 15.6606 4.15839 16.442 4.89224C17.2234 5.62608 17.6958 6.63014 17.7629 7.7L17.9839 11.234C18.0682 12.5815 18.5206 13.88 19.2919 14.988C19.4513 15.2171 19.5487 15.4835 19.5746 15.7613C19.6005 16.0392 19.5541 16.319 19.4398 16.5736C19.3256 16.8281 19.1474 17.0488 18.9226 17.2142C18.6978 17.3795 18.434 17.4838 18.1569 17.517L14.7499 17.925V19C14.7499 19.7293 14.4602 20.4288 13.9445 20.9445C13.4288 21.4603 12.7293 21.75 11.9999 21.75C11.2706 21.75 10.5711 21.4603 10.0554 20.9445C9.53968 20.4288 9.24995 19.7293 9.24995 19V17.925L5.84295 17.516C5.56604 17.4827 5.30246 17.3784 5.0778 17.2131C4.85313 17.0478 4.67503 16.8273 4.5608 16.5729C4.44657 16.3184 4.40009 16.0388 4.42587 15.7611C4.45165 15.4834 4.54883 15.2171 4.70795 14.988C5.47925 13.8799 5.93168 12.5814 6.01595 11.234L6.23695 7.7ZM10.4429 5.25C9.75252 5.24992 9.08802 5.51297 8.58473 5.98561C8.08144 6.45825 7.7772 7.10493 7.73395 7.794L7.51395 11.328C7.41229 12.949 6.86787 14.511 5.93995 15.844C5.92842 15.8606 5.92137 15.8798 5.91949 15.8999C5.9176 15.92 5.92095 15.9403 5.9292 15.9587C5.93746 15.9771 5.95034 15.9931 5.96659 16.005C5.98284 16.017 6.00191 16.0246 6.02195 16.027L9.75895 16.476C11.2479 16.654 12.7519 16.654 14.2409 16.476L17.978 16.027C17.998 16.0246 18.0171 16.017 18.0333 16.005C18.0496 15.9931 18.0624 15.9771 18.0707 15.9587C18.0789 15.9403 18.0823 15.92 18.0804 15.8999C18.0785 15.8798 18.0715 15.8606 18.0599 15.844C17.1323 14.5109 16.5883 12.9489 16.4869 11.328L16.266 7.794C16.2227 7.10493 15.9185 6.45825 15.4152 5.98561C14.9119 5.51297 14.2474 5.24992 13.5569 5.25H10.4429ZM11.9999 20.25C11.3099 20.25 10.7499 19.69 10.7499 19V18.25H13.2499V19C13.2499 19.69 12.6899 20.25 11.9999 20.25Z" fill="#777777"/>
<path d="M17.643 1.3552C17.4932 1.48597 17.4015 1.67089 17.388 1.86929C17.3745 2.06769 17.4403 2.26333 17.571 2.4132L18.863 3.8932C19.3643 4.46796 19.6475 5.20071 19.663 5.9632L19.72 8.6802C19.7241 8.87911 19.8071 9.06824 19.9506 9.20599C20.0942 9.34374 20.2866 9.41881 20.4855 9.4147C20.6844 9.41059 20.8736 9.32763 21.0113 9.18407C21.1491 9.04051 21.2241 8.84811 21.22 8.6492L21.163 5.9312C21.1398 4.81717 20.7256 3.74677 19.993 2.9072L18.701 1.4272C18.5702 1.27739 18.3853 1.18564 18.1869 1.17214C17.9885 1.15864 17.7929 1.22449 17.643 1.3552Z" fill="#777777"/>
</svg>
