<svg width="36" height="36" viewBox="0 0 36 36" fill="none" xmlns="http://www.w3.org/2000/svg">
<path d="M27.796 19L8 5V31H27.796L15.918 19H27.796Z" fill="#22408B"/>
<path d="M25 18L9 7.19604V30H25L13.574 18H25Z" fill="#DD2F45"/>
<path d="M14.2909 24.0409L14.8769 23.2249L13.8769 23.3229L13.9769 22.3229L13.1599 22.9089L12.7459 21.9929L12.3319 22.9089L11.5149 22.3229L11.6139 23.3229L10.6139 23.2249L11.1999 24.0409L10.2839 24.4549L11.1999 24.8689L10.6139 25.6849L11.6139 25.5869L11.5149 26.5869L12.3319 26.0009L12.7459 26.9169L13.1599 26.0009L13.9769 26.5869L13.8769 25.5869L14.8769 25.6849L14.2909 24.8689L15.2069 24.4549L14.2909 24.0409ZM12.7449 16.8939L12.7459 16.8959L12.7469 16.8939L12.7649 16.8959C14.2329 16.8959 15.4249 15.7659 15.5489 14.3289C15.1995 14.9792 14.636 15.4886 13.9539 15.7709L13.7789 15.5269L14.3899 15.2509L13.7789 14.9749L14.1699 14.4299L13.5019 14.4959L13.5689 13.8279L13.0229 14.2189L12.7469 13.6069L12.4709 14.2189L11.9249 13.8279L11.9919 14.4959L11.3239 14.4299L11.7149 14.9749L11.1039 15.2509L11.7149 15.5269L11.5479 15.7599C10.8785 15.4747 10.3262 14.97 9.98193 14.3289C10.0393 15.0242 10.3546 15.6728 10.8659 16.1474C11.3771 16.622 12.0474 16.8883 12.7449 16.8939Z" fill="white"/>
</svg>
